<svg width="1280" height="300" viewBox="0 0 1280 300" fill="none" xmlns="http://www.w3.org/2000/svg">
<path d="M62.432 181.364C59.7627 181.364 57.3707 180.931 55.256 180.064C53.1413 179.197 51.4427 177.915 50.16 176.216C48.912 174.517 48.2533 172.472 48.184 170.08H57.648C57.7867 171.432 58.2547 172.472 59.052 173.2C59.8493 173.893 60.8893 174.24 62.172 174.24C63.4893 174.24 64.5293 173.945 65.292 173.356C66.0547 172.732 66.436 171.883 66.436 170.808C66.436 169.907 66.124 169.161 65.5 168.572C64.9107 167.983 64.1653 167.497 63.264 167.116C62.3973 166.735 61.1493 166.301 59.52 165.816C57.1627 165.088 55.2387 164.36 53.748 163.632C52.2573 162.904 50.9747 161.829 49.9 160.408C48.8253 158.987 48.288 157.132 48.288 154.844C48.288 151.447 49.5187 148.795 51.98 146.888C54.4413 144.947 57.648 143.976 61.6 143.976C65.6213 143.976 68.8627 144.947 71.324 146.888C73.7853 148.795 75.1027 151.464 75.276 154.896H65.656C65.5867 153.717 65.1533 152.799 64.356 152.14C63.5587 151.447 62.536 151.1 61.288 151.1C60.2133 151.1 59.3467 151.395 58.688 151.984C58.0293 152.539 57.7 153.353 57.7 154.428C57.7 155.607 58.2547 156.525 59.364 157.184C60.4733 157.843 62.2067 158.553 64.564 159.316C66.9213 160.113 68.828 160.876 70.284 161.604C71.7747 162.332 73.0573 163.389 74.132 164.776C75.2067 166.163 75.744 167.948 75.744 170.132C75.744 172.212 75.2067 174.101 74.132 175.8C73.092 177.499 71.5667 178.851 69.556 179.856C67.5453 180.861 65.1707 181.364 62.432 181.364ZM97.3882 173.46V181H92.8642C89.6402 181 87.1269 180.22 85.3242 178.66C83.5215 177.065 82.6202 174.483 82.6202 170.912V159.368H79.0842V151.984H82.6202V144.912H91.5122V151.984H97.3362V159.368H91.5122V171.016C91.5122 171.883 91.7202 172.507 92.1362 172.888C92.5522 173.269 93.2455 173.46 94.2162 173.46H97.3882ZM100.573 166.44C100.573 163.459 101.128 160.841 102.237 158.588C103.381 156.335 104.924 154.601 106.865 153.388C108.807 152.175 110.973 151.568 113.365 151.568C115.411 151.568 117.196 151.984 118.721 152.816C120.281 153.648 121.477 154.74 122.309 156.092V151.984H131.201V181H122.309V176.892C121.443 178.244 120.229 179.336 118.669 180.168C117.144 181 115.359 181.416 113.313 181.416C110.956 181.416 108.807 180.809 106.865 179.596C104.924 178.348 103.381 176.597 102.237 174.344C101.128 172.056 100.573 169.421 100.573 166.44ZM122.309 166.492C122.309 164.273 121.685 162.523 120.437 161.24C119.224 159.957 117.733 159.316 115.965 159.316C114.197 159.316 112.689 159.957 111.441 161.24C110.228 162.488 109.621 164.221 109.621 166.44C109.621 168.659 110.228 170.427 111.441 171.744C112.689 173.027 114.197 173.668 115.965 173.668C117.733 173.668 119.224 173.027 120.437 171.744C121.685 170.461 122.309 168.711 122.309 166.492ZM153.806 173.46V181H149.282C146.058 181 143.545 180.22 141.742 178.66C139.939 177.065 139.038 174.483 139.038 170.912V159.368H135.502V151.984H139.038V144.912H147.93V151.984H153.754V159.368H147.93V171.016C147.93 171.883 148.138 172.507 148.554 172.888C148.97 173.269 149.663 173.46 150.634 173.46H153.806ZM186.111 166.024C186.111 166.856 186.059 167.723 185.955 168.624H165.831C165.97 170.427 166.542 171.813 167.547 172.784C168.587 173.72 169.852 174.188 171.343 174.188C173.562 174.188 175.104 173.252 175.971 171.38H185.435C184.95 173.287 184.066 175.003 182.783 176.528C181.535 178.053 179.958 179.249 178.051 180.116C176.144 180.983 174.012 181.416 171.655 181.416C168.812 181.416 166.282 180.809 164.063 179.596C161.844 178.383 160.111 176.649 158.863 174.396C157.615 172.143 156.991 169.508 156.991 166.492C156.991 163.476 157.598 160.841 158.811 158.588C160.059 156.335 161.792 154.601 164.011 153.388C166.23 152.175 168.778 151.568 171.655 151.568C174.463 151.568 176.959 152.157 179.143 153.336C181.327 154.515 183.026 156.196 184.239 158.38C185.487 160.564 186.111 163.112 186.111 166.024ZM177.011 163.684C177.011 162.159 176.491 160.945 175.451 160.044C174.411 159.143 173.111 158.692 171.551 158.692C170.06 158.692 168.795 159.125 167.755 159.992C166.75 160.859 166.126 162.089 165.883 163.684H177.011ZM204.01 181.364C201.341 181.364 198.949 180.931 196.834 180.064C194.719 179.197 193.021 177.915 191.738 176.216C190.49 174.517 189.831 172.472 189.762 170.08H199.226C199.365 171.432 199.833 172.472 200.63 173.2C201.427 173.893 202.467 174.24 203.75 174.24C205.067 174.24 206.107 173.945 206.87 173.356C207.633 172.732 208.014 171.883 208.014 170.808C208.014 169.907 207.702 169.161 207.078 168.572C206.489 167.983 205.743 167.497 204.842 167.116C203.975 166.735 202.727 166.301 201.098 165.816C198.741 165.088 196.817 164.36 195.326 163.632C193.835 162.904 192.553 161.829 191.478 160.408C190.403 158.987 189.866 157.132 189.866 154.844C189.866 151.447 191.097 148.795 193.558 146.888C196.019 144.947 199.226 143.976 203.178 143.976C207.199 143.976 210.441 144.947 212.902 146.888C215.363 148.795 216.681 151.464 216.854 154.896H207.234C207.165 153.717 206.731 152.799 205.934 152.14C205.137 151.447 204.114 151.1 202.866 151.1C201.791 151.1 200.925 151.395 200.266 151.984C199.607 152.539 199.278 153.353 199.278 154.428C199.278 155.607 199.833 156.525 200.942 157.184C202.051 157.843 203.785 158.553 206.142 159.316C208.499 160.113 210.406 160.876 211.862 161.604C213.353 162.332 214.635 163.389 215.71 164.776C216.785 166.163 217.322 167.948 217.322 170.132C217.322 172.212 216.785 174.101 215.71 175.8C214.67 177.499 213.145 178.851 211.134 179.856C209.123 180.861 206.749 181.364 204.01 181.364ZM238.966 173.46V181H234.442C231.218 181 228.705 180.22 226.902 178.66C225.1 177.065 224.198 174.483 224.198 170.912V159.368H220.662V151.984H224.198V144.912H233.09V151.984H238.914V159.368H233.09V171.016C233.09 171.883 233.298 172.507 233.714 172.888C234.13 173.269 234.824 173.46 235.794 173.46H238.966ZM252.811 156.82C253.851 155.225 255.151 153.977 256.711 153.076C258.271 152.14 260.005 151.672 261.911 151.672V161.084H259.467C257.249 161.084 255.585 161.569 254.475 162.54C253.366 163.476 252.811 165.14 252.811 167.532V181H243.919V151.984H252.811V156.82ZM293.513 166.024C293.513 166.856 293.462 167.723 293.358 168.624H273.234C273.372 170.427 273.944 171.813 274.95 172.784C275.99 173.72 277.255 174.188 278.746 174.188C280.964 174.188 282.507 173.252 283.374 171.38H292.838C292.352 173.287 291.468 175.003 290.186 176.528C288.938 178.053 287.36 179.249 285.454 180.116C283.547 180.983 281.415 181.416 279.058 181.416C276.215 181.416 273.684 180.809 271.466 179.596C269.247 178.383 267.514 176.649 266.266 174.396C265.018 172.143 264.394 169.508 264.394 166.492C264.394 163.476 265 160.841 266.214 158.588C267.462 156.335 269.195 154.601 271.414 153.388C273.632 152.175 276.18 151.568 279.058 151.568C281.866 151.568 284.362 152.157 286.546 153.336C288.73 154.515 290.428 156.196 291.642 158.38C292.89 160.564 293.513 163.112 293.513 166.024ZM284.414 163.684C284.414 162.159 283.894 160.945 282.854 160.044C281.814 159.143 280.514 158.692 278.954 158.692C277.463 158.692 276.198 159.125 275.158 159.992C274.152 160.859 273.528 162.089 273.286 163.684H284.414ZM325.556 166.024C325.556 166.856 325.504 167.723 325.4 168.624H305.276C305.415 170.427 305.987 171.813 306.992 172.784C308.032 173.72 309.298 174.188 310.788 174.188C313.007 174.188 314.55 173.252 315.416 171.38H324.88C324.395 173.287 323.511 175.003 322.228 176.528C320.98 178.053 319.403 179.249 317.496 180.116C315.59 180.983 313.458 181.416 311.1 181.416C308.258 181.416 305.727 180.809 303.508 179.596C301.29 178.383 299.556 176.649 298.308 174.396C297.06 172.143 296.436 169.508 296.436 166.492C296.436 163.476 297.043 160.841 298.256 158.588C299.504 156.335 301.238 154.601 303.456 153.388C305.675 152.175 308.223 151.568 311.1 151.568C313.908 151.568 316.404 152.157 318.588 153.336C320.772 154.515 322.471 156.196 323.684 158.38C324.932 160.564 325.556 163.112 325.556 166.024ZM316.456 163.684C316.456 162.159 315.936 160.945 314.896 160.044C313.856 159.143 312.556 158.692 310.996 158.692C309.506 158.692 308.24 159.125 307.2 159.992C306.195 160.859 305.571 162.089 305.328 163.684H316.456ZM346.419 173.46V181H341.895C338.671 181 336.158 180.22 334.355 178.66C332.553 177.065 331.651 174.483 331.651 170.912V159.368H328.115V151.984H331.651V144.912H340.543V151.984H346.367V159.368H340.543V171.016C340.543 171.883 340.751 172.507 341.167 172.888C341.583 173.269 342.277 173.46 343.247 173.46H346.419ZM388.652 144.496V151.62H378.98V181H370.088V151.62H360.416V144.496H388.652ZM406.323 181.416C403.48 181.416 400.915 180.809 398.627 179.596C396.373 178.383 394.588 176.649 393.271 174.396C391.988 172.143 391.347 169.508 391.347 166.492C391.347 163.511 392.005 160.893 393.323 158.64C394.64 156.352 396.443 154.601 398.731 153.388C401.019 152.175 403.584 151.568 406.427 151.568C409.269 151.568 411.835 152.175 414.123 153.388C416.411 154.601 418.213 156.352 419.531 158.64C420.848 160.893 421.507 163.511 421.507 166.492C421.507 169.473 420.831 172.108 419.479 174.396C418.161 176.649 416.341 178.383 414.019 179.596C411.731 180.809 409.165 181.416 406.323 181.416ZM406.323 173.72C408.021 173.72 409.46 173.096 410.639 171.848C411.852 170.6 412.459 168.815 412.459 166.492C412.459 164.169 411.869 162.384 410.691 161.136C409.547 159.888 408.125 159.264 406.427 159.264C404.693 159.264 403.255 159.888 402.111 161.136C400.967 162.349 400.395 164.135 400.395 166.492C400.395 168.815 400.949 170.6 402.059 171.848C403.203 173.096 404.624 173.72 406.323 173.72ZM439.432 181.416C436.589 181.416 434.024 180.809 431.736 179.596C429.483 178.383 427.697 176.649 426.38 174.396C425.097 172.143 424.456 169.508 424.456 166.492C424.456 163.511 425.115 160.893 426.432 158.64C427.749 156.352 429.552 154.601 431.84 153.388C434.128 152.175 436.693 151.568 439.536 151.568C442.379 151.568 444.944 152.175 447.232 153.388C449.52 154.601 451.323 156.352 452.64 158.64C453.957 160.893 454.616 163.511 454.616 166.492C454.616 169.473 453.94 172.108 452.588 174.396C451.271 176.649 449.451 178.383 447.128 179.596C444.84 180.809 442.275 181.416 439.432 181.416ZM439.432 173.72C441.131 173.72 442.569 173.096 443.748 171.848C444.961 170.6 445.568 168.815 445.568 166.492C445.568 164.169 444.979 162.384 443.8 161.136C442.656 159.888 441.235 159.264 439.536 159.264C437.803 159.264 436.364 159.888 435.22 161.136C434.076 162.349 433.504 164.135 433.504 166.492C433.504 168.815 434.059 170.6 435.168 171.848C436.312 173.096 437.733 173.72 439.432 173.72ZM468.225 142.52V181H459.333V142.52H468.225ZM509.921 156.04C509.262 154.827 508.309 153.908 507.061 153.284C505.848 152.625 504.409 152.296 502.745 152.296C499.868 152.296 497.562 153.249 495.829 155.156C494.096 157.028 493.229 159.541 493.229 162.696C493.229 166.059 494.13 168.693 495.933 170.6C497.77 172.472 500.284 173.408 503.473 173.408C505.657 173.408 507.494 172.853 508.985 171.744C510.51 170.635 511.62 169.04 512.313 166.96H501.029V160.408H520.373V168.676C519.714 170.895 518.588 172.957 516.993 174.864C515.433 176.771 513.44 178.313 511.013 179.492C508.586 180.671 505.848 181.26 502.797 181.26C499.192 181.26 495.968 180.48 493.125 178.92C490.317 177.325 488.116 175.124 486.521 172.316C484.961 169.508 484.181 166.301 484.181 162.696C484.181 159.091 484.961 155.884 486.521 153.076C488.116 150.233 490.317 148.032 493.125 146.472C495.933 144.877 499.14 144.08 502.745 144.08C507.113 144.08 510.788 145.137 513.769 147.252C516.785 149.367 518.778 152.296 519.749 156.04H509.921ZM552.65 166.024C552.65 166.856 552.598 167.723 552.494 168.624H532.37C532.509 170.427 533.081 171.813 534.086 172.784C535.126 173.72 536.392 174.188 537.882 174.188C540.101 174.188 541.644 173.252 542.51 171.38H551.974C551.489 173.287 550.605 175.003 549.322 176.528C548.074 178.053 546.497 179.249 544.59 180.116C542.684 180.983 540.552 181.416 538.194 181.416C535.352 181.416 532.821 180.809 530.602 179.596C528.384 178.383 526.65 176.649 525.402 174.396C524.154 172.143 523.53 169.508 523.53 166.492C523.53 163.476 524.137 160.841 525.35 158.588C526.598 156.335 528.332 154.601 530.55 153.388C532.769 152.175 535.317 151.568 538.194 151.568C541.002 151.568 543.498 152.157 545.682 153.336C547.866 154.515 549.565 156.196 550.778 158.38C552.026 160.564 552.65 163.112 552.65 166.024ZM543.55 163.684C543.55 162.159 543.03 160.945 541.99 160.044C540.95 159.143 539.65 158.692 538.09 158.692C536.6 158.692 535.334 159.125 534.294 159.992C533.289 160.859 532.665 162.089 532.422 163.684H543.55ZM575.021 151.672C578.419 151.672 581.123 152.781 583.133 155C585.179 157.184 586.201 160.2 586.201 164.048V181H577.361V165.244C577.361 163.303 576.859 161.795 575.853 160.72C574.848 159.645 573.496 159.108 571.797 159.108C570.099 159.108 568.747 159.645 567.741 160.72C566.736 161.795 566.233 163.303 566.233 165.244V181H557.341V151.984H566.233V155.832C567.135 154.549 568.348 153.544 569.873 152.816C571.399 152.053 573.115 151.672 575.021 151.672ZM619.732 166.024C619.732 166.856 619.68 167.723 619.576 168.624H599.452C599.591 170.427 600.163 171.813 601.168 172.784C602.208 173.72 603.474 174.188 604.964 174.188C607.183 174.188 608.726 173.252 609.592 171.38H619.056C618.571 173.287 617.687 175.003 616.404 176.528C615.156 178.053 613.579 179.249 611.672 180.116C609.766 180.983 607.634 181.416 605.276 181.416C602.434 181.416 599.903 180.809 597.684 179.596C595.466 178.383 593.732 176.649 592.484 174.396C591.236 172.143 590.612 169.508 590.612 166.492C590.612 163.476 591.219 160.841 592.432 158.588C593.68 156.335 595.414 154.601 597.632 153.388C599.851 152.175 602.399 151.568 605.276 151.568C608.084 151.568 610.58 152.157 612.764 153.336C614.948 154.515 616.647 156.196 617.86 158.38C619.108 160.564 619.732 163.112 619.732 166.024ZM610.632 163.684C610.632 162.159 610.112 160.945 609.072 160.044C608.032 159.143 606.732 158.692 605.172 158.692C603.682 158.692 602.416 159.125 601.376 159.992C600.371 160.859 599.747 162.089 599.504 163.684H610.632ZM633.315 156.82C634.355 155.225 635.655 153.977 637.215 153.076C638.775 152.14 640.509 151.672 642.415 151.672V161.084H639.971C637.753 161.084 636.089 161.569 634.979 162.54C633.87 163.476 633.315 165.14 633.315 167.532V181H624.423V151.984H633.315V156.82ZM644.897 166.44C644.897 163.459 645.452 160.841 646.561 158.588C647.705 156.335 649.248 154.601 651.189 153.388C653.131 152.175 655.297 151.568 657.689 151.568C659.735 151.568 661.52 151.984 663.045 152.816C664.605 153.648 665.801 154.74 666.633 156.092V151.984H675.525V181H666.633V176.892C665.767 178.244 664.553 179.336 662.993 180.168C661.468 181 659.683 181.416 657.637 181.416C655.28 181.416 653.131 180.809 651.189 179.596C649.248 178.348 647.705 176.597 646.561 174.344C645.452 172.056 644.897 169.421 644.897 166.44ZM666.633 166.492C666.633 164.273 666.009 162.523 664.761 161.24C663.548 159.957 662.057 159.316 660.289 159.316C658.521 159.316 657.013 159.957 655.765 161.24C654.552 162.488 653.945 164.221 653.945 166.44C653.945 168.659 654.552 170.427 655.765 171.744C657.013 173.027 658.521 173.668 660.289 173.668C662.057 173.668 663.548 173.027 664.761 171.744C666.009 170.461 666.633 168.711 666.633 166.492ZM698.13 173.46V181H693.606C690.382 181 687.869 180.22 686.066 178.66C684.264 177.065 683.362 174.483 683.362 170.912V159.368H679.826V151.984H683.362V144.912H692.254V151.984H698.078V159.368H692.254V171.016C692.254 171.883 692.462 172.507 692.878 172.888C693.294 173.269 693.988 173.46 694.958 173.46H698.13ZM707.555 148.968C705.995 148.968 704.713 148.517 703.707 147.616C702.737 146.68 702.251 145.536 702.251 144.184C702.251 142.797 702.737 141.653 703.707 140.752C704.713 139.816 705.995 139.348 707.555 139.348C709.081 139.348 710.329 139.816 711.299 140.752C712.305 141.653 712.807 142.797 712.807 144.184C712.807 145.536 712.305 146.68 711.299 147.616C710.329 148.517 709.081 148.968 707.555 148.968ZM711.975 151.984V181H703.083V151.984H711.975ZM731.627 181.416C728.785 181.416 726.219 180.809 723.931 179.596C721.678 178.383 719.893 176.649 718.575 174.396C717.293 172.143 716.651 169.508 716.651 166.492C716.651 163.511 717.31 160.893 718.627 158.64C719.945 156.352 721.747 154.601 724.035 153.388C726.323 152.175 728.889 151.568 731.731 151.568C734.574 151.568 737.139 152.175 739.427 153.388C741.715 154.601 743.518 156.352 744.835 158.64C746.153 160.893 746.811 163.511 746.811 166.492C746.811 169.473 746.135 172.108 744.783 174.396C743.466 176.649 741.646 178.383 739.323 179.596C737.035 180.809 734.47 181.416 731.627 181.416ZM731.627 173.72C733.326 173.72 734.765 173.096 735.943 171.848C737.157 170.6 737.763 168.815 737.763 166.492C737.763 164.169 737.174 162.384 735.995 161.136C734.851 159.888 733.43 159.264 731.731 159.264C729.998 159.264 728.559 159.888 727.415 161.136C726.271 162.349 725.699 164.135 725.699 166.492C725.699 168.815 726.254 170.6 727.363 171.848C728.507 173.096 729.929 173.72 731.627 173.72ZM769.209 151.672C772.606 151.672 775.31 152.781 777.321 155C779.366 157.184 780.389 160.2 780.389 164.048V181H771.549V165.244C771.549 163.303 771.046 161.795 770.041 160.72C769.035 159.645 767.683 159.108 765.985 159.108C764.286 159.108 762.934 159.645 761.929 160.72C760.923 161.795 760.421 163.303 760.421 165.244V181H751.529V151.984H760.421V155.832C761.322 154.549 762.535 153.544 764.061 152.816C765.586 152.053 767.302 151.672 769.209 151.672ZM810.795 181.364C808.126 181.364 805.734 180.931 803.619 180.064C801.505 179.197 799.806 177.915 798.523 176.216C797.275 174.517 796.617 172.472 796.547 170.08H806.011C806.15 171.432 806.618 172.472 807.415 173.2C808.213 173.893 809.253 174.24 810.535 174.24C811.853 174.24 812.893 173.945 813.655 173.356C814.418 172.732 814.799 171.883 814.799 170.808C814.799 169.907 814.487 169.161 813.863 168.572C813.274 167.983 812.529 167.497 811.627 167.116C810.761 166.735 809.513 166.301 807.883 165.816C805.526 165.088 803.602 164.36 802.111 163.632C800.621 162.904 799.338 161.829 798.263 160.408C797.189 158.987 796.651 157.132 796.651 154.844C796.651 151.447 797.882 148.795 800.343 146.888C802.805 144.947 806.011 143.976 809.963 143.976C813.985 143.976 817.226 144.947 819.687 146.888C822.149 148.795 823.466 151.464 823.639 154.896H814.019C813.95 153.717 813.517 152.799 812.719 152.14C811.922 151.447 810.899 151.1 809.651 151.1C808.577 151.1 807.71 151.395 807.051 151.984C806.393 152.539 806.063 153.353 806.063 154.428C806.063 155.607 806.618 156.525 807.727 157.184C808.837 157.843 810.57 158.553 812.927 159.316C815.285 160.113 817.191 160.876 818.647 161.604C820.138 162.332 821.421 163.389 822.495 164.776C823.57 166.163 824.107 167.948 824.107 170.132C824.107 172.212 823.57 174.101 822.495 175.8C821.455 177.499 819.93 178.851 817.919 179.856C815.909 180.861 813.534 181.364 810.795 181.364ZM858.231 151.984V181H849.339V177.048C848.438 178.331 847.207 179.371 845.647 180.168C844.122 180.931 842.423 181.312 840.551 181.312C838.333 181.312 836.374 180.827 834.675 179.856C832.977 178.851 831.659 177.412 830.723 175.54C829.787 173.668 829.319 171.467 829.319 168.936V151.984H838.159V167.74C838.159 169.681 838.662 171.189 839.667 172.264C840.673 173.339 842.025 173.876 843.723 173.876C845.457 173.876 846.826 173.339 847.831 172.264C848.837 171.189 849.339 169.681 849.339 167.74V151.984H858.231ZM869.091 148.968C867.531 148.968 866.248 148.517 865.243 147.616C864.272 146.68 863.787 145.536 863.787 144.184C863.787 142.797 864.272 141.653 865.243 140.752C866.248 139.816 867.531 139.348 869.091 139.348C870.616 139.348 871.864 139.816 872.835 140.752C873.84 141.653 874.343 142.797 874.343 144.184C874.343 145.536 873.84 146.68 872.835 147.616C871.864 148.517 870.616 148.968 869.091 148.968ZM873.511 151.984V181H864.619V151.984H873.511ZM896.126 173.46V181H891.602C888.378 181 885.865 180.22 884.062 178.66C882.26 177.065 881.358 174.483 881.358 170.912V159.368H877.822V151.984H881.358V144.912H890.25V151.984H896.074V159.368H890.25V171.016C890.25 171.883 890.458 172.507 890.874 172.888C891.29 173.269 891.984 173.46 892.954 173.46H896.126ZM928.431 166.024C928.431 166.856 928.379 167.723 928.275 168.624H908.151C908.29 170.427 908.862 171.813 909.867 172.784C910.907 173.72 912.173 174.188 913.663 174.188C915.882 174.188 917.425 173.252 918.291 171.38H927.755C927.27 173.287 926.386 175.003 925.103 176.528C923.855 178.053 922.278 179.249 920.371 180.116C918.465 180.983 916.333 181.416 913.975 181.416C911.133 181.416 908.602 180.809 906.383 179.596C904.165 178.383 902.431 176.649 901.183 174.396C899.935 172.143 899.311 169.508 899.311 166.492C899.311 163.476 899.918 160.841 901.131 158.588C902.379 156.335 904.113 154.601 906.331 153.388C908.55 152.175 911.098 151.568 913.975 151.568C916.783 151.568 919.279 152.157 921.463 153.336C923.647 154.515 925.346 156.196 926.559 158.38C927.807 160.564 928.431 163.112 928.431 166.024ZM919.331 163.684C919.331 162.159 918.811 160.945 917.771 160.044C916.731 159.143 915.431 158.692 913.871 158.692C912.381 158.692 911.115 159.125 910.075 159.992C909.07 160.859 908.446 162.089 908.203 163.684H919.331Z" fill="white"/>
<path d="M61.648 228.04H51.92L50.128 233H47.056L55.12 210.824H58.48L66.512 233H63.44L61.648 228.04ZM60.816 225.672L56.784 214.408L52.752 225.672H60.816ZM85.5785 215.464V233H82.6665V230.408C82.1118 231.304 81.3332 232.008 80.3305 232.52C79.3492 233.011 78.2612 233.256 77.0665 233.256C75.7012 233.256 74.4745 232.979 73.3865 232.424C72.2985 231.848 71.4345 230.995 70.7945 229.864C70.1758 228.733 69.8665 227.357 69.8665 225.736V215.464H72.7465V225.352C72.7465 227.08 73.1838 228.413 74.0585 229.352C74.9332 230.269 76.1278 230.728 77.6425 230.728C79.1998 230.728 80.4265 230.248 81.3225 229.288C82.2185 228.328 82.6665 226.931 82.6665 225.096V215.464H85.5785ZM94.0473 217.864V228.2C94.0473 229.053 94.2286 229.661 94.5913 230.024C94.9539 230.365 95.5833 230.536 96.4792 230.536H98.6233V233H95.9993C94.3779 233 93.1619 232.627 92.3513 231.88C91.5406 231.133 91.1353 229.907 91.1353 228.2V217.864H88.8633V215.464H91.1353V211.048H94.0473V215.464H98.6233V217.864H94.0473ZM109.8 233.288C108.157 233.288 106.664 232.915 105.32 232.168C103.997 231.421 102.952 230.365 102.184 229C101.437 227.613 101.064 226.013 101.064 224.2C101.064 222.408 101.448 220.829 102.216 219.464C103.005 218.077 104.072 217.021 105.416 216.296C106.76 215.549 108.264 215.176 109.928 215.176C111.592 215.176 113.096 215.549 114.44 216.296C115.784 217.021 116.84 218.067 117.608 219.432C118.397 220.797 118.792 222.387 118.792 224.2C118.792 226.013 118.386 227.613 117.576 229C116.786 230.365 115.709 231.421 114.344 232.168C112.978 232.915 111.464 233.288 109.8 233.288ZM109.8 230.728C110.845 230.728 111.826 230.483 112.744 229.992C113.661 229.501 114.397 228.765 114.952 227.784C115.528 226.803 115.816 225.608 115.816 224.2C115.816 222.792 115.538 221.597 114.984 220.616C114.429 219.635 113.704 218.909 112.808 218.44C111.912 217.949 110.941 217.704 109.896 217.704C108.829 217.704 107.848 217.949 106.952 218.44C106.077 218.909 105.373 219.635 104.84 220.616C104.306 221.597 104.04 222.792 104.04 224.2C104.04 225.629 104.296 226.835 104.808 227.816C105.341 228.797 106.045 229.533 106.92 230.024C107.794 230.493 108.754 230.728 109.8 230.728ZM143.708 215.144C145.074 215.144 146.29 215.432 147.356 216.008C148.423 216.563 149.266 217.405 149.884 218.536C150.503 219.667 150.812 221.043 150.812 222.664V233H147.932V223.08C147.932 221.331 147.495 219.997 146.62 219.08C145.767 218.141 144.604 217.672 143.132 217.672C141.618 217.672 140.412 218.163 139.516 219.144C138.62 220.104 138.172 221.501 138.172 223.336V233H135.292V223.08C135.292 221.331 134.855 219.997 133.98 219.08C133.127 218.141 131.964 217.672 130.492 217.672C128.978 217.672 127.772 218.163 126.876 219.144C125.98 220.104 125.532 221.501 125.532 223.336V233H122.62V215.464H125.532V217.992C126.108 217.075 126.876 216.371 127.836 215.88C128.818 215.389 129.895 215.144 131.068 215.144C132.54 215.144 133.842 215.475 134.972 216.136C136.103 216.797 136.946 217.768 137.5 219.048C137.991 217.811 138.802 216.851 139.932 216.168C141.063 215.485 142.322 215.144 143.708 215.144ZM154.501 224.168C154.501 222.376 154.864 220.808 155.589 219.464C156.314 218.099 157.306 217.043 158.565 216.296C159.845 215.549 161.264 215.176 162.821 215.176C164.357 215.176 165.69 215.507 166.821 216.168C167.952 216.829 168.794 217.661 169.349 218.664V215.464H172.293V233H169.349V229.736C168.773 230.76 167.909 231.613 166.757 232.296C165.626 232.957 164.304 233.288 162.789 233.288C161.232 233.288 159.824 232.904 158.565 232.136C157.306 231.368 156.314 230.291 155.589 228.904C154.864 227.517 154.501 225.939 154.501 224.168ZM169.349 224.2C169.349 222.877 169.082 221.725 168.549 220.744C168.016 219.763 167.29 219.016 166.373 218.504C165.477 217.971 164.485 217.704 163.397 217.704C162.309 217.704 161.317 217.96 160.421 218.472C159.525 218.984 158.81 219.731 158.277 220.712C157.744 221.693 157.477 222.845 157.477 224.168C157.477 225.512 157.744 226.685 158.277 227.688C158.81 228.669 159.525 229.427 160.421 229.96C161.317 230.472 162.309 230.728 163.397 230.728C164.485 230.728 165.477 230.472 166.373 229.96C167.29 229.427 168.016 228.669 168.549 227.688C169.082 226.685 169.349 225.523 169.349 224.2ZM180.766 217.864V228.2C180.766 229.053 180.947 229.661 181.31 230.024C181.673 230.365 182.302 230.536 183.198 230.536H185.342V233H182.718C181.097 233 179.881 232.627 179.07 231.88C178.259 231.133 177.854 229.907 177.854 228.2V217.864H175.582V215.464H177.854V211.048H180.766V215.464H185.342V217.864H180.766ZM204.87 223.56C204.87 224.115 204.838 224.701 204.774 225.32H190.758C190.865 227.048 191.452 228.403 192.518 229.384C193.606 230.344 194.918 230.824 196.454 230.824C197.713 230.824 198.758 230.536 199.59 229.96C200.444 229.363 201.041 228.573 201.382 227.592H204.518C204.049 229.277 203.11 230.653 201.702 231.72C200.294 232.765 198.545 233.288 196.454 233.288C194.79 233.288 193.297 232.915 191.974 232.168C190.673 231.421 189.649 230.365 188.902 229C188.156 227.613 187.782 226.013 187.782 224.2C187.782 222.387 188.145 220.797 188.87 219.432C189.596 218.067 190.609 217.021 191.91 216.296C193.233 215.549 194.748 215.176 196.454 215.176C198.118 215.176 199.59 215.539 200.87 216.264C202.15 216.989 203.132 217.992 203.814 219.272C204.518 220.531 204.87 221.96 204.87 223.56ZM201.862 222.952C201.862 221.843 201.617 220.893 201.126 220.104C200.636 219.293 199.964 218.685 199.11 218.28C198.278 217.853 197.35 217.64 196.326 217.64C194.854 217.64 193.596 218.109 192.55 219.048C191.526 219.987 190.94 221.288 190.79 222.952H201.862ZM207.626 224.168C207.626 222.376 207.989 220.808 208.714 219.464C209.439 218.099 210.431 217.043 211.69 216.296C212.97 215.549 214.399 215.176 215.978 215.176C217.343 215.176 218.613 215.496 219.786 216.136C220.959 216.755 221.855 217.576 222.474 218.6V209.32H225.418V233H222.474V229.704C221.898 230.749 221.045 231.613 219.914 232.296C218.783 232.957 217.461 233.288 215.946 233.288C214.389 233.288 212.97 232.904 211.69 232.136C210.431 231.368 209.439 230.291 208.714 228.904C207.989 227.517 207.626 225.939 207.626 224.168ZM222.474 224.2C222.474 222.877 222.207 221.725 221.674 220.744C221.141 219.763 220.415 219.016 219.498 218.504C218.602 217.971 217.61 217.704 216.522 217.704C215.434 217.704 214.442 217.96 213.546 218.472C212.65 218.984 211.935 219.731 211.402 220.712C210.869 221.693 210.602 222.845 210.602 224.168C210.602 225.512 210.869 226.685 211.402 227.688C211.935 228.669 212.65 229.427 213.546 229.96C214.442 230.472 215.434 230.728 216.522 230.728C217.61 230.728 218.602 230.472 219.498 229.96C220.415 229.427 221.141 228.669 221.674 227.688C222.207 226.685 222.474 225.523 222.474 224.2ZM242.422 217.864V228.2C242.422 229.053 242.604 229.661 242.966 230.024C243.329 230.365 243.958 230.536 244.854 230.536H246.998V233H244.374C242.753 233 241.537 232.627 240.726 231.88C239.916 231.133 239.51 229.907 239.51 228.2V217.864H237.238V215.464H239.51V211.048H242.422V215.464H246.998V217.864H242.422ZM258.175 233.288C256.532 233.288 255.039 232.915 253.695 232.168C252.372 231.421 251.327 230.365 250.559 229C249.812 227.613 249.439 226.013 249.439 224.2C249.439 222.408 249.823 220.829 250.591 219.464C251.38 218.077 252.447 217.021 253.791 216.296C255.135 215.549 256.639 215.176 258.303 215.176C259.967 215.176 261.471 215.549 262.815 216.296C264.159 217.021 265.215 218.067 265.983 219.432C266.772 220.797 267.167 222.387 267.167 224.2C267.167 226.013 266.761 227.613 265.951 229C265.161 230.365 264.084 231.421 262.719 232.168C261.353 232.915 259.839 233.288 258.175 233.288ZM258.175 230.728C259.22 230.728 260.201 230.483 261.119 229.992C262.036 229.501 262.772 228.765 263.327 227.784C263.903 226.803 264.191 225.608 264.191 224.2C264.191 222.792 263.913 221.597 263.359 220.616C262.804 219.635 262.079 218.909 261.183 218.44C260.287 217.949 259.316 217.704 258.271 217.704C257.204 217.704 256.223 217.949 255.327 218.44C254.452 218.909 253.748 219.635 253.215 220.616C252.681 221.597 252.415 222.792 252.415 224.2C252.415 225.629 252.671 226.835 253.183 227.816C253.716 228.797 254.42 229.533 255.295 230.024C256.169 230.493 257.129 230.728 258.175 230.728ZM278.643 233.288C277.001 233.288 275.507 232.915 274.163 232.168C272.841 231.421 271.795 230.365 271.027 229C270.281 227.613 269.907 226.013 269.907 224.2C269.907 222.408 270.291 220.829 271.059 219.464C271.849 218.077 272.915 217.021 274.259 216.296C275.603 215.549 277.107 215.176 278.771 215.176C280.435 215.176 281.939 215.549 283.283 216.296C284.627 217.021 285.683 218.067 286.451 219.432C287.241 220.797 287.635 222.387 287.635 224.2C287.635 226.013 287.23 227.613 286.419 229C285.63 230.365 284.553 231.421 283.187 232.168C281.822 232.915 280.307 233.288 278.643 233.288ZM278.643 230.728C279.689 230.728 280.67 230.483 281.587 229.992C282.505 229.501 283.241 228.765 283.795 227.784C284.371 226.803 284.659 225.608 284.659 224.2C284.659 222.792 284.382 221.597 283.827 220.616C283.273 219.635 282.547 218.909 281.651 218.44C280.755 217.949 279.785 217.704 278.739 217.704C277.673 217.704 276.691 217.949 275.795 218.44C274.921 218.909 274.217 219.635 273.683 220.616C273.15 221.597 272.883 222.792 272.883 224.2C272.883 225.629 273.139 226.835 273.651 227.816C274.185 228.797 274.889 229.533 275.763 230.024C276.638 230.493 277.598 230.728 278.643 230.728ZM294.376 209.32V233H291.464V209.32H294.376ZM315.102 215.176C316.617 215.176 317.94 215.507 319.07 216.168C320.222 216.829 321.076 217.661 321.63 218.664V215.464H324.574V233.384C324.574 234.984 324.233 236.403 323.55 237.64C322.868 238.899 321.886 239.88 320.606 240.584C319.348 241.288 317.876 241.64 316.19 241.64C313.886 241.64 311.966 241.096 310.43 240.008C308.894 238.92 307.988 237.437 307.71 235.56H310.59C310.91 236.627 311.572 237.48 312.574 238.12C313.577 238.781 314.782 239.112 316.19 239.112C317.79 239.112 319.092 238.611 320.094 237.608C321.118 236.605 321.63 235.197 321.63 233.384V229.704C321.054 230.728 320.201 231.581 319.07 232.264C317.94 232.947 316.617 233.288 315.102 233.288C313.545 233.288 312.126 232.904 310.846 232.136C309.588 231.368 308.596 230.291 307.87 228.904C307.145 227.517 306.782 225.939 306.782 224.168C306.782 222.376 307.145 220.808 307.87 219.464C308.596 218.099 309.588 217.043 310.846 216.296C312.126 215.549 313.545 215.176 315.102 215.176ZM321.63 224.2C321.63 222.877 321.364 221.725 320.83 220.744C320.297 219.763 319.572 219.016 318.654 218.504C317.758 217.971 316.766 217.704 315.678 217.704C314.59 217.704 313.598 217.96 312.702 218.472C311.806 218.984 311.092 219.731 310.558 220.712C310.025 221.693 309.758 222.845 309.758 224.168C309.758 225.512 310.025 226.685 310.558 227.688C311.092 228.669 311.806 229.427 312.702 229.96C313.598 230.472 314.59 230.728 315.678 230.728C316.766 230.728 317.758 230.472 318.654 229.96C319.572 229.427 320.297 228.669 320.83 227.688C321.364 226.685 321.63 225.523 321.63 224.2ZM345.495 223.56C345.495 224.115 345.463 224.701 345.399 225.32H331.383C331.49 227.048 332.077 228.403 333.143 229.384C334.231 230.344 335.543 230.824 337.079 230.824C338.338 230.824 339.383 230.536 340.215 229.96C341.069 229.363 341.666 228.573 342.007 227.592H345.143C344.674 229.277 343.735 230.653 342.327 231.72C340.919 232.765 339.17 233.288 337.079 233.288C335.415 233.288 333.922 232.915 332.599 232.168C331.298 231.421 330.274 230.365 329.527 229C328.781 227.613 328.407 226.013 328.407 224.2C328.407 222.387 328.77 220.797 329.495 219.432C330.221 218.067 331.234 217.021 332.535 216.296C333.858 215.549 335.373 215.176 337.079 215.176C338.743 215.176 340.215 215.539 341.495 216.264C342.775 216.989 343.757 217.992 344.439 219.272C345.143 220.531 345.495 221.96 345.495 223.56ZM342.487 222.952C342.487 221.843 342.242 220.893 341.751 220.104C341.261 219.293 340.589 218.685 339.735 218.28C338.903 217.853 337.975 217.64 336.951 217.64C335.479 217.64 334.221 218.109 333.175 219.048C332.151 219.987 331.565 221.288 331.415 222.952H342.487ZM357.883 215.144C360.016 215.144 361.744 215.795 363.067 217.096C364.39 218.376 365.051 220.232 365.051 222.664V233H362.171V223.08C362.171 221.331 361.734 219.997 360.859 219.08C359.984 218.141 358.79 217.672 357.275 217.672C355.739 217.672 354.512 218.152 353.595 219.112C352.699 220.072 352.251 221.469 352.251 223.304V233H349.339V215.464H352.251V217.96C352.827 217.064 353.606 216.371 354.587 215.88C355.59 215.389 356.688 215.144 357.883 215.144ZM385.808 223.56C385.808 224.115 385.776 224.701 385.712 225.32H371.696C371.802 227.048 372.389 228.403 373.456 229.384C374.544 230.344 375.856 230.824 377.392 230.824C378.65 230.824 379.696 230.536 380.528 229.96C381.381 229.363 381.978 228.573 382.32 227.592H385.456C384.986 229.277 384.048 230.653 382.64 231.72C381.232 232.765 379.482 233.288 377.392 233.288C375.728 233.288 374.234 232.915 372.912 232.168C371.61 231.421 370.586 230.365 369.84 229C369.093 227.613 368.72 226.013 368.72 224.2C368.72 222.387 369.082 220.797 369.808 219.432C370.533 218.067 371.546 217.021 372.848 216.296C374.17 215.549 375.685 215.176 377.392 215.176C379.056 215.176 380.528 215.539 381.808 216.264C383.088 216.989 384.069 217.992 384.752 219.272C385.456 220.531 385.808 221.96 385.808 223.56ZM382.8 222.952C382.8 221.843 382.554 220.893 382.064 220.104C381.573 219.293 380.901 218.685 380.048 218.28C379.216 217.853 378.288 217.64 377.264 217.64C375.792 217.64 374.533 218.109 373.488 219.048C372.464 219.987 371.877 221.288 371.728 222.952H382.8ZM392.564 218.312C393.076 217.309 393.801 216.531 394.74 215.976C395.7 215.421 396.862 215.144 398.228 215.144V218.152H397.46C394.196 218.152 392.564 219.923 392.564 223.464V233H389.652V215.464H392.564V218.312ZM400.501 224.168C400.501 222.376 400.864 220.808 401.589 219.464C402.314 218.099 403.306 217.043 404.565 216.296C405.845 215.549 407.264 215.176 408.821 215.176C410.357 215.176 411.69 215.507 412.821 216.168C413.952 216.829 414.794 217.661 415.349 218.664V215.464H418.293V233H415.349V229.736C414.773 230.76 413.909 231.613 412.757 232.296C411.626 232.957 410.304 233.288 408.789 233.288C407.232 233.288 405.824 232.904 404.565 232.136C403.306 231.368 402.314 230.291 401.589 228.904C400.864 227.517 400.501 225.939 400.501 224.168ZM415.349 224.2C415.349 222.877 415.082 221.725 414.549 220.744C414.016 219.763 413.29 219.016 412.373 218.504C411.477 217.971 410.485 217.704 409.397 217.704C408.309 217.704 407.317 217.96 406.421 218.472C405.525 218.984 404.81 219.731 404.277 220.712C403.744 221.693 403.477 222.845 403.477 224.168C403.477 225.512 403.744 226.685 404.277 227.688C404.81 228.669 405.525 229.427 406.421 229.96C407.317 230.472 408.309 230.728 409.397 230.728C410.485 230.728 411.477 230.472 412.373 229.96C413.29 229.427 414.016 228.669 414.549 227.688C415.082 226.685 415.349 225.523 415.349 224.2ZM426.766 217.864V228.2C426.766 229.053 426.947 229.661 427.31 230.024C427.673 230.365 428.302 230.536 429.198 230.536H431.342V233H428.718C427.097 233 425.881 232.627 425.07 231.88C424.259 231.133 423.854 229.907 423.854 228.2V217.864H421.582V215.464H423.854V211.048H426.766V215.464H431.342V217.864H426.766ZM436.374 212.616C435.82 212.616 435.35 212.424 434.966 212.04C434.582 211.656 434.39 211.187 434.39 210.632C434.39 210.077 434.582 209.608 434.966 209.224C435.35 208.84 435.82 208.648 436.374 208.648C436.908 208.648 437.356 208.84 437.718 209.224C438.102 209.608 438.294 210.077 438.294 210.632C438.294 211.187 438.102 211.656 437.718 212.04C437.356 212.424 436.908 212.616 436.374 212.616ZM437.782 215.464V233H434.87V215.464H437.782ZM450.393 233.288C448.751 233.288 447.257 232.915 445.913 232.168C444.591 231.421 443.545 230.365 442.777 229C442.031 227.613 441.657 226.013 441.657 224.2C441.657 222.408 442.041 220.829 442.809 219.464C443.599 218.077 444.665 217.021 446.009 216.296C447.353 215.549 448.857 215.176 450.521 215.176C452.185 215.176 453.689 215.549 455.033 216.296C456.377 217.021 457.433 218.067 458.201 219.432C458.991 220.797 459.385 222.387 459.385 224.2C459.385 226.013 458.98 227.613 458.169 229C457.38 230.365 456.303 231.421 454.937 232.168C453.572 232.915 452.057 233.288 450.393 233.288ZM450.393 230.728C451.439 230.728 452.42 230.483 453.337 229.992C454.255 229.501 454.991 228.765 455.545 227.784C456.121 226.803 456.409 225.608 456.409 224.2C456.409 222.792 456.132 221.597 455.577 220.616C455.023 219.635 454.297 218.909 453.401 218.44C452.505 217.949 451.535 217.704 450.489 217.704C449.423 217.704 448.441 217.949 447.545 218.44C446.671 218.909 445.967 219.635 445.433 220.616C444.9 221.597 444.633 222.792 444.633 224.2C444.633 225.629 444.889 226.835 445.401 227.816C445.935 228.797 446.639 229.533 447.513 230.024C448.388 230.493 449.348 230.728 450.393 230.728ZM471.758 215.144C473.891 215.144 475.619 215.795 476.942 217.096C478.265 218.376 478.926 220.232 478.926 222.664V233H476.046V223.08C476.046 221.331 475.609 219.997 474.734 219.08C473.859 218.141 472.665 217.672 471.15 217.672C469.614 217.672 468.387 218.152 467.47 219.112C466.574 220.072 466.126 221.469 466.126 223.304V233H463.214V215.464H466.126V217.96C466.702 217.064 467.481 216.371 468.462 215.88C469.465 215.389 470.563 215.144 471.758 215.144ZM498.422 233.288C497.078 233.288 495.873 233.064 494.806 232.616C493.739 232.147 492.897 231.507 492.278 230.696C491.659 229.864 491.318 228.915 491.254 227.848H494.262C494.347 228.723 494.753 229.437 495.478 229.992C496.225 230.547 497.195 230.824 498.39 230.824C499.499 230.824 500.374 230.579 501.014 230.088C501.654 229.597 501.974 228.979 501.974 228.232C501.974 227.464 501.633 226.899 500.95 226.536C500.267 226.152 499.211 225.779 497.782 225.416C496.481 225.075 495.414 224.733 494.582 224.392C493.771 224.029 493.067 223.507 492.47 222.824C491.894 222.12 491.606 221.203 491.606 220.072C491.606 219.176 491.873 218.355 492.406 217.608C492.939 216.861 493.697 216.275 494.678 215.848C495.659 215.4 496.779 215.176 498.038 215.176C499.979 215.176 501.547 215.667 502.742 216.648C503.937 217.629 504.577 218.973 504.662 220.68H501.75C501.686 219.763 501.313 219.027 500.63 218.472C499.969 217.917 499.073 217.64 497.942 217.64C496.897 217.64 496.065 217.864 495.446 218.312C494.827 218.76 494.518 219.347 494.518 220.072C494.518 220.648 494.699 221.128 495.062 221.512C495.446 221.875 495.915 222.173 496.47 222.408C497.046 222.621 497.835 222.867 498.838 223.144C500.097 223.485 501.121 223.827 501.91 224.168C502.699 224.488 503.371 224.979 503.926 225.64C504.502 226.301 504.801 227.165 504.822 228.232C504.822 229.192 504.555 230.056 504.022 230.824C503.489 231.592 502.731 232.2 501.75 232.648C500.79 233.075 499.681 233.288 498.422 233.288ZM524.485 215.464V233H521.573V230.408C521.018 231.304 520.239 232.008 519.237 232.52C518.255 233.011 517.167 233.256 515.973 233.256C514.607 233.256 513.381 232.979 512.293 232.424C511.205 231.848 510.341 230.995 509.701 229.864C509.082 228.733 508.773 227.357 508.773 225.736V215.464H511.653V225.352C511.653 227.08 512.09 228.413 512.965 229.352C513.839 230.269 515.034 230.728 516.549 230.728C518.106 230.728 519.333 230.248 520.229 229.288C521.125 228.328 521.573 226.931 521.573 225.096V215.464H524.485ZM530.906 212.616C530.351 212.616 529.882 212.424 529.498 212.04C529.114 211.656 528.922 211.187 528.922 210.632C528.922 210.077 529.114 209.608 529.498 209.224C529.882 208.84 530.351 208.648 530.906 208.648C531.439 208.648 531.887 208.84 532.25 209.224C532.634 209.608 532.826 210.077 532.826 210.632C532.826 211.187 532.634 211.656 532.25 212.04C531.887 212.424 531.439 212.616 530.906 212.616ZM532.314 215.464V233H529.402V215.464H532.314ZM540.829 217.864V228.2C540.829 229.053 541.01 229.661 541.373 230.024C541.735 230.365 542.365 230.536 543.26 230.536H545.405V233H542.781C541.159 233 539.943 232.627 539.133 231.88C538.322 231.133 537.917 229.907 537.917 228.2V217.864H535.645V215.464H537.917V211.048H540.829V215.464H545.405V217.864H540.829ZM564.933 223.56C564.933 224.115 564.901 224.701 564.837 225.32H550.821C550.927 227.048 551.514 228.403 552.581 229.384C553.669 230.344 554.981 230.824 556.517 230.824C557.775 230.824 558.821 230.536 559.653 229.96C560.506 229.363 561.103 228.573 561.445 227.592H564.581C564.111 229.277 563.173 230.653 561.765 231.72C560.357 232.765 558.607 233.288 556.517 233.288C554.853 233.288 553.359 232.915 552.037 232.168C550.735 231.421 549.711 230.365 548.965 229C548.218 227.613 547.845 226.013 547.845 224.2C547.845 222.387 548.207 220.797 548.933 219.432C549.658 218.067 550.671 217.021 551.973 216.296C553.295 215.549 554.81 215.176 556.517 215.176C558.181 215.176 559.653 215.539 560.933 216.264C562.213 216.989 563.194 217.992 563.877 219.272C564.581 220.531 564.933 221.96 564.933 223.56ZM561.925 222.952C561.925 221.843 561.679 220.893 561.189 220.104C560.698 219.293 560.026 218.685 559.173 218.28C558.341 217.853 557.413 217.64 556.389 217.64C554.917 217.64 553.658 218.109 552.613 219.048C551.589 219.987 551.002 221.288 550.853 222.952H561.925ZM584.444 217.864H580.764V233H577.852V217.864H575.58V215.464H577.852V214.216C577.852 212.253 578.353 210.824 579.356 209.928C580.38 209.011 582.012 208.552 584.252 208.552V210.984C582.972 210.984 582.065 211.24 581.532 211.752C581.02 212.243 580.764 213.064 580.764 214.216V215.464H584.444V217.864ZM595.487 233.288C593.844 233.288 592.351 232.915 591.007 232.168C589.684 231.421 588.639 230.365 587.871 229C587.124 227.613 586.751 226.013 586.751 224.2C586.751 222.408 587.135 220.829 587.903 219.464C588.692 218.077 589.759 217.021 591.103 216.296C592.447 215.549 593.951 215.176 595.615 215.176C597.279 215.176 598.783 215.549 600.127 216.296C601.471 217.021 602.527 218.067 603.295 219.432C604.084 220.797 604.479 222.387 604.479 224.2C604.479 226.013 604.074 227.613 603.263 229C602.474 230.365 601.396 231.421 600.031 232.168C598.666 232.915 597.151 233.288 595.487 233.288ZM595.487 230.728C596.532 230.728 597.514 230.483 598.431 229.992C599.348 229.501 600.084 228.765 600.639 227.784C601.215 226.803 601.503 225.608 601.503 224.2C601.503 222.792 601.226 221.597 600.671 220.616C600.116 219.635 599.391 218.909 598.495 218.44C597.599 217.949 596.628 217.704 595.583 217.704C594.516 217.704 593.535 217.949 592.639 218.44C591.764 218.909 591.06 219.635 590.527 220.616C589.994 221.597 589.727 222.792 589.727 224.2C589.727 225.629 589.983 226.835 590.495 227.816C591.028 228.797 591.732 229.533 592.607 230.024C593.482 230.493 594.442 230.728 595.487 230.728ZM611.22 218.312C611.732 217.309 612.457 216.531 613.396 215.976C614.356 215.421 615.518 215.144 616.884 215.144V218.152H616.116C612.852 218.152 611.22 219.923 611.22 223.464V233H608.308V215.464H611.22V218.312ZM635.849 233.224C634.377 233.224 633.054 232.968 631.881 232.456C630.729 231.923 629.822 231.197 629.161 230.28C628.499 229.341 628.158 228.264 628.137 227.048H631.241C631.347 228.093 631.774 228.979 632.521 229.704C633.289 230.408 634.398 230.76 635.849 230.76C637.235 230.76 638.323 230.419 639.113 229.736C639.923 229.032 640.329 228.136 640.329 227.048C640.329 226.195 640.094 225.501 639.625 224.968C639.155 224.435 638.569 224.029 637.865 223.752C637.161 223.475 636.211 223.176 635.017 222.856C633.545 222.472 632.361 222.088 631.465 221.704C630.59 221.32 629.833 220.723 629.193 219.912C628.574 219.08 628.265 217.971 628.265 216.584C628.265 215.368 628.574 214.291 629.193 213.352C629.811 212.413 630.675 211.688 631.785 211.176C632.915 210.664 634.206 210.408 635.657 210.408C637.747 210.408 639.454 210.931 640.777 211.976C642.121 213.021 642.878 214.408 643.049 216.136H639.849C639.742 215.283 639.294 214.536 638.505 213.896C637.715 213.235 636.67 212.904 635.369 212.904C634.153 212.904 633.161 213.224 632.393 213.864C631.625 214.483 631.241 215.357 631.241 216.488C631.241 217.299 631.465 217.96 631.913 218.472C632.382 218.984 632.947 219.379 633.609 219.656C634.291 219.912 635.241 220.211 636.457 220.552C637.929 220.957 639.113 221.363 640.009 221.768C640.905 222.152 641.673 222.76 642.312 223.592C642.953 224.403 643.273 225.512 643.273 226.92C643.273 228.008 642.985 229.032 642.409 229.992C641.833 230.952 640.979 231.731 639.849 232.328C638.718 232.925 637.385 233.224 635.849 233.224ZM651.11 217.864V228.2C651.11 229.053 651.291 229.661 651.654 230.024C652.016 230.365 652.646 230.536 653.542 230.536H655.686V233H653.062C651.44 233 650.224 232.627 649.414 231.88C648.603 231.133 648.198 229.907 648.198 228.2V217.864H645.926V215.464H648.198V211.048H651.11V215.464H655.686V217.864H651.11ZM658.126 224.168C658.126 222.376 658.489 220.808 659.214 219.464C659.939 218.099 660.931 217.043 662.19 216.296C663.47 215.549 664.889 215.176 666.446 215.176C667.982 215.176 669.315 215.507 670.446 216.168C671.577 216.829 672.419 217.661 672.974 218.664V215.464H675.918V233H672.974V229.736C672.398 230.76 671.534 231.613 670.382 232.296C669.251 232.957 667.929 233.288 666.414 233.288C664.857 233.288 663.449 232.904 662.19 232.136C660.931 231.368 659.939 230.291 659.214 228.904C658.489 227.517 658.126 225.939 658.126 224.168ZM672.974 224.2C672.974 222.877 672.707 221.725 672.174 220.744C671.641 219.763 670.915 219.016 669.998 218.504C669.102 217.971 668.11 217.704 667.022 217.704C665.934 217.704 664.942 217.96 664.046 218.472C663.15 218.984 662.435 219.731 661.902 220.712C661.369 221.693 661.102 222.845 661.102 224.168C661.102 225.512 661.369 226.685 661.902 227.688C662.435 228.669 663.15 229.427 664.046 229.96C664.942 230.472 665.934 230.728 667.022 230.728C668.11 230.728 669.102 230.472 669.998 229.96C670.915 229.427 671.641 228.669 672.174 227.688C672.707 226.685 672.974 225.523 672.974 224.2ZM684.391 217.864V228.2C684.391 229.053 684.572 229.661 684.935 230.024C685.298 230.365 685.927 230.536 686.823 230.536H688.967V233H686.343C684.722 233 683.506 232.627 682.695 231.88C681.884 231.133 681.479 229.907 681.479 228.2V217.864H679.207V215.464H681.479V211.048H684.391V215.464H688.967V217.864H684.391ZM708.495 223.56C708.495 224.115 708.463 224.701 708.399 225.32H694.383C694.49 227.048 695.077 228.403 696.143 229.384C697.231 230.344 698.543 230.824 700.079 230.824C701.338 230.824 702.383 230.536 703.215 229.96C704.069 229.363 704.666 228.573 705.007 227.592H708.143C707.674 229.277 706.735 230.653 705.327 231.72C703.919 232.765 702.17 233.288 700.079 233.288C698.415 233.288 696.922 232.915 695.599 232.168C694.298 231.421 693.274 230.365 692.527 229C691.781 227.613 691.407 226.013 691.407 224.2C691.407 222.387 691.77 220.797 692.495 219.432C693.221 218.067 694.234 217.021 695.535 216.296C696.858 215.549 698.373 215.176 700.079 215.176C701.743 215.176 703.215 215.539 704.495 216.264C705.775 216.989 706.757 217.992 707.439 219.272C708.143 220.531 708.495 221.96 708.495 223.56ZM705.487 222.952C705.487 221.843 705.242 220.893 704.751 220.104C704.261 219.293 703.589 218.685 702.735 218.28C701.903 217.853 700.975 217.64 699.951 217.64C698.479 217.64 697.221 218.109 696.175 219.048C695.151 219.987 694.565 221.288 694.415 222.952H705.487ZM719.411 233.224C717.939 233.224 716.616 232.968 715.443 232.456C714.291 231.923 713.384 231.197 712.723 230.28C712.062 229.341 711.72 228.264 711.699 227.048H714.803C714.91 228.093 715.336 228.979 716.083 229.704C716.851 230.408 717.96 230.76 719.411 230.76C720.798 230.76 721.886 230.419 722.675 229.736C723.486 229.032 723.891 228.136 723.891 227.048C723.891 226.195 723.656 225.501 723.187 224.968C722.718 224.435 722.131 224.029 721.427 223.752C720.723 223.475 719.774 223.176 718.579 222.856C717.107 222.472 715.923 222.088 715.027 221.704C714.152 221.32 713.395 220.723 712.755 219.912C712.136 219.08 711.827 217.971 711.827 216.584C711.827 215.368 712.136 214.291 712.755 213.352C713.374 212.413 714.238 211.688 715.347 211.176C716.478 210.664 717.768 210.408 719.219 210.408C721.31 210.408 723.016 210.931 724.339 211.976C725.683 213.021 726.44 214.408 726.611 216.136H723.411C723.304 215.283 722.856 214.536 722.067 213.896C721.278 213.235 720.232 212.904 718.931 212.904C717.715 212.904 716.723 213.224 715.955 213.864C715.187 214.483 714.803 215.357 714.803 216.488C714.803 217.299 715.027 217.96 715.475 218.472C715.944 218.984 716.51 219.379 717.171 219.656C717.854 219.912 718.803 220.211 720.019 220.552C721.491 220.957 722.675 221.363 723.571 221.768C724.467 222.152 725.235 222.76 725.875 223.592C726.515 224.403 726.835 225.512 726.835 226.92C726.835 228.008 726.547 229.032 725.971 229.992C725.395 230.952 724.542 231.731 723.411 232.328C722.28 232.925 720.947 233.224 719.411 233.224ZM734.672 217.864V228.2C734.672 229.053 734.854 229.661 735.216 230.024C735.579 230.365 736.208 230.536 737.104 230.536H739.248V233H736.624C735.003 233 733.787 232.627 732.976 231.88C732.166 231.133 731.76 229.907 731.76 228.2V217.864H729.488V215.464H731.76V211.048H734.672V215.464H739.248V217.864H734.672ZM745.689 218.312C746.201 217.309 746.926 216.531 747.865 215.976C748.825 215.421 749.987 215.144 751.353 215.144V218.152H750.585C747.321 218.152 745.689 219.923 745.689 223.464V233H742.777V215.464H745.689V218.312ZM770.714 223.56C770.714 224.115 770.682 224.701 770.618 225.32H756.602C756.709 227.048 757.295 228.403 758.362 229.384C759.45 230.344 760.762 230.824 762.298 230.824C763.557 230.824 764.602 230.536 765.434 229.96C766.287 229.363 766.885 228.573 767.226 227.592H770.362C769.893 229.277 768.954 230.653 767.546 231.72C766.138 232.765 764.389 233.288 762.298 233.288C760.634 233.288 759.141 232.915 757.818 232.168C756.517 231.421 755.493 230.365 754.746 229C753.999 227.613 753.626 226.013 753.626 224.2C753.626 222.387 753.989 220.797 754.714 219.432C755.439 218.067 756.453 217.021 757.754 216.296C759.077 215.549 760.591 215.176 762.298 215.176C763.962 215.176 765.434 215.539 766.714 216.264C767.994 216.989 768.975 217.992 769.658 219.272C770.362 220.531 770.714 221.96 770.714 223.56ZM767.706 222.952C767.706 221.843 767.461 220.893 766.97 220.104C766.479 219.293 765.807 218.685 764.954 218.28C764.122 217.853 763.194 217.64 762.17 217.64C760.698 217.64 759.439 218.109 758.394 219.048C757.37 219.987 756.783 221.288 756.634 222.952H767.706ZM790.558 223.56C790.558 224.115 790.526 224.701 790.462 225.32H776.446C776.552 227.048 777.139 228.403 778.206 229.384C779.294 230.344 780.606 230.824 782.142 230.824C783.4 230.824 784.446 230.536 785.278 229.96C786.131 229.363 786.728 228.573 787.07 227.592H790.206C789.736 229.277 788.798 230.653 787.39 231.72C785.982 232.765 784.232 233.288 782.142 233.288C780.478 233.288 778.984 232.915 777.662 232.168C776.36 231.421 775.336 230.365 774.59 229C773.843 227.613 773.47 226.013 773.47 224.2C773.47 222.387 773.832 220.797 774.558 219.432C775.283 218.067 776.296 217.021 777.598 216.296C778.92 215.549 780.435 215.176 782.142 215.176C783.806 215.176 785.278 215.539 786.558 216.264C787.838 216.989 788.819 217.992 789.502 219.272C790.206 220.531 790.558 221.96 790.558 223.56ZM787.55 222.952C787.55 221.843 787.304 220.893 786.814 220.104C786.323 219.293 785.651 218.685 784.798 218.28C783.966 217.853 783.038 217.64 782.014 217.64C780.542 217.64 779.283 218.109 778.238 219.048C777.214 219.987 776.627 221.288 776.478 222.952H787.55ZM797.954 217.864V228.2C797.954 229.053 798.135 229.661 798.498 230.024C798.86 230.365 799.49 230.536 800.385 230.536H802.53V233H799.906C798.284 233 797.068 232.627 796.258 231.88C795.447 231.133 795.042 229.907 795.042 228.2V217.864H792.77V215.464H795.042V211.048H797.954V215.464H802.53V217.864H797.954Z" fill="white"/>
</svg>
