<svg width="1280" height="300" viewBox="0 0 1280 300" fill="none" xmlns="http://www.w3.org/2000/svg">
<path d="M62.432 181.364C59.7627 181.364 57.3707 180.931 55.256 180.064C53.1413 179.197 51.4427 177.915 50.16 176.216C48.912 174.517 48.2533 172.472 48.184 170.08H57.648C57.7867 171.432 58.2547 172.472 59.052 173.2C59.8493 173.893 60.8893 174.24 62.172 174.24C63.4893 174.24 64.5293 173.945 65.292 173.356C66.0547 172.732 66.436 171.883 66.436 170.808C66.436 169.907 66.124 169.161 65.5 168.572C64.9107 167.983 64.1653 167.497 63.264 167.116C62.3973 166.735 61.1493 166.301 59.52 165.816C57.1627 165.088 55.2387 164.36 53.748 163.632C52.2573 162.904 50.9747 161.829 49.9 160.408C48.8253 158.987 48.288 157.132 48.288 154.844C48.288 151.447 49.5187 148.795 51.98 146.888C54.4413 144.947 57.648 143.976 61.6 143.976C65.6213 143.976 68.8627 144.947 71.324 146.888C73.7853 148.795 75.1027 151.464 75.276 154.896H65.656C65.5867 153.717 65.1533 152.799 64.356 152.14C63.5587 151.447 62.536 151.1 61.288 151.1C60.2133 151.1 59.3467 151.395 58.688 151.984C58.0293 152.539 57.7 153.353 57.7 154.428C57.7 155.607 58.2547 156.525 59.364 157.184C60.4733 157.843 62.2067 158.553 64.564 159.316C66.9213 160.113 68.828 160.876 70.284 161.604C71.7747 162.332 73.0573 163.389 74.132 164.776C75.2067 166.163 75.744 167.948 75.744 170.132C75.744 172.212 75.2067 174.101 74.132 175.8C73.092 177.499 71.5667 178.851 69.556 179.856C67.5453 180.861 65.1707 181.364 62.432 181.364ZM97.3882 173.46V181H92.8642C89.6402 181 87.1269 180.22 85.3242 178.66C83.5215 177.065 82.6202 174.483 82.6202 170.912V159.368H79.0842V151.984H82.6202V144.912H91.5122V151.984H97.3362V159.368H91.5122V171.016C91.5122 171.883 91.7202 172.507 92.1362 172.888C92.5522 173.269 93.2455 173.46 94.2162 173.46H97.3882ZM100.573 166.44C100.573 163.459 101.128 160.841 102.237 158.588C103.381 156.335 104.924 154.601 106.865 153.388C108.807 152.175 110.973 151.568 113.365 151.568C115.411 151.568 117.196 151.984 118.721 152.816C120.281 153.648 121.477 154.74 122.309 156.092V151.984H131.201V181H122.309V176.892C121.443 178.244 120.229 179.336 118.669 180.168C117.144 181 115.359 181.416 113.313 181.416C110.956 181.416 108.807 180.809 106.865 179.596C104.924 178.348 103.381 176.597 102.237 174.344C101.128 172.056 100.573 169.421 100.573 166.44ZM122.309 166.492C122.309 164.273 121.685 162.523 120.437 161.24C119.224 159.957 117.733 159.316 115.965 159.316C114.197 159.316 112.689 159.957 111.441 161.24C110.228 162.488 109.621 164.221 109.621 166.44C109.621 168.659 110.228 170.427 111.441 171.744C112.689 173.027 114.197 173.668 115.965 173.668C117.733 173.668 119.224 173.027 120.437 171.744C121.685 170.461 122.309 168.711 122.309 166.492ZM153.806 173.46V181H149.282C146.058 181 143.545 180.22 141.742 178.66C139.939 177.065 139.038 174.483 139.038 170.912V159.368H135.502V151.984H139.038V144.912H147.93V151.984H153.754V159.368H147.93V171.016C147.93 171.883 148.138 172.507 148.554 172.888C148.97 173.269 149.663 173.46 150.634 173.46H153.806ZM186.111 166.024C186.111 166.856 186.059 167.723 185.955 168.624H165.831C165.97 170.427 166.542 171.813 167.547 172.784C168.587 173.72 169.852 174.188 171.343 174.188C173.562 174.188 175.104 173.252 175.971 171.38H185.435C184.95 173.287 184.066 175.003 182.783 176.528C181.535 178.053 179.958 179.249 178.051 180.116C176.144 180.983 174.012 181.416 171.655 181.416C168.812 181.416 166.282 180.809 164.063 179.596C161.844 178.383 160.111 176.649 158.863 174.396C157.615 172.143 156.991 169.508 156.991 166.492C156.991 163.476 157.598 160.841 158.811 158.588C160.059 156.335 161.792 154.601 164.011 153.388C166.23 152.175 168.778 151.568 171.655 151.568C174.463 151.568 176.959 152.157 179.143 153.336C181.327 154.515 183.026 156.196 184.239 158.38C185.487 160.564 186.111 163.112 186.111 166.024ZM177.011 163.684C177.011 162.159 176.491 160.945 175.451 160.044C174.411 159.143 173.111 158.692 171.551 158.692C170.06 158.692 168.795 159.125 167.755 159.992C166.75 160.859 166.126 162.089 165.883 163.684H177.011ZM204.01 181.364C201.341 181.364 198.949 180.931 196.834 180.064C194.719 179.197 193.021 177.915 191.738 176.216C190.49 174.517 189.831 172.472 189.762 170.08H199.226C199.365 171.432 199.833 172.472 200.63 173.2C201.427 173.893 202.467 174.24 203.75 174.24C205.067 174.24 206.107 173.945 206.87 173.356C207.633 172.732 208.014 171.883 208.014 170.808C208.014 169.907 207.702 169.161 207.078 168.572C206.489 167.983 205.743 167.497 204.842 167.116C203.975 166.735 202.727 166.301 201.098 165.816C198.741 165.088 196.817 164.36 195.326 163.632C193.835 162.904 192.553 161.829 191.478 160.408C190.403 158.987 189.866 157.132 189.866 154.844C189.866 151.447 191.097 148.795 193.558 146.888C196.019 144.947 199.226 143.976 203.178 143.976C207.199 143.976 210.441 144.947 212.902 146.888C215.363 148.795 216.681 151.464 216.854 154.896H207.234C207.165 153.717 206.731 152.799 205.934 152.14C205.137 151.447 204.114 151.1 202.866 151.1C201.791 151.1 200.925 151.395 200.266 151.984C199.607 152.539 199.278 153.353 199.278 154.428C199.278 155.607 199.833 156.525 200.942 157.184C202.051 157.843 203.785 158.553 206.142 159.316C208.499 160.113 210.406 160.876 211.862 161.604C213.353 162.332 214.635 163.389 215.71 164.776C216.785 166.163 217.322 167.948 217.322 170.132C217.322 172.212 216.785 174.101 215.71 175.8C214.67 177.499 213.145 178.851 211.134 179.856C209.123 180.861 206.749 181.364 204.01 181.364ZM238.966 173.46V181H234.442C231.218 181 228.705 180.22 226.902 178.66C225.1 177.065 224.198 174.483 224.198 170.912V159.368H220.662V151.984H224.198V144.912H233.09V151.984H238.914V159.368H233.09V171.016C233.09 171.883 233.298 172.507 233.714 172.888C234.13 173.269 234.824 173.46 235.794 173.46H238.966ZM252.811 156.82C253.851 155.225 255.151 153.977 256.711 153.076C258.271 152.14 260.005 151.672 261.911 151.672V161.084H259.467C257.249 161.084 255.585 161.569 254.475 162.54C253.366 163.476 252.811 165.14 252.811 167.532V181H243.919V151.984H252.811V156.82ZM293.513 166.024C293.513 166.856 293.462 167.723 293.358 168.624H273.234C273.372 170.427 273.944 171.813 274.95 172.784C275.99 173.72 277.255 174.188 278.746 174.188C280.964 174.188 282.507 173.252 283.374 171.38H292.838C292.352 173.287 291.468 175.003 290.186 176.528C288.938 178.053 287.36 179.249 285.454 180.116C283.547 180.983 281.415 181.416 279.058 181.416C276.215 181.416 273.684 180.809 271.466 179.596C269.247 178.383 267.514 176.649 266.266 174.396C265.018 172.143 264.394 169.508 264.394 166.492C264.394 163.476 265 160.841 266.214 158.588C267.462 156.335 269.195 154.601 271.414 153.388C273.632 152.175 276.18 151.568 279.058 151.568C281.866 151.568 284.362 152.157 286.546 153.336C288.73 154.515 290.428 156.196 291.642 158.38C292.89 160.564 293.513 163.112 293.513 166.024ZM284.414 163.684C284.414 162.159 283.894 160.945 282.854 160.044C281.814 159.143 280.514 158.692 278.954 158.692C277.463 158.692 276.198 159.125 275.158 159.992C274.152 160.859 273.528 162.089 273.286 163.684H284.414ZM325.556 166.024C325.556 166.856 325.504 167.723 325.4 168.624H305.276C305.415 170.427 305.987 171.813 306.992 172.784C308.032 173.72 309.298 174.188 310.788 174.188C313.007 174.188 314.55 173.252 315.416 171.38H324.88C324.395 173.287 323.511 175.003 322.228 176.528C320.98 178.053 319.403 179.249 317.496 180.116C315.59 180.983 313.458 181.416 311.1 181.416C308.258 181.416 305.727 180.809 303.508 179.596C301.29 178.383 299.556 176.649 298.308 174.396C297.06 172.143 296.436 169.508 296.436 166.492C296.436 163.476 297.043 160.841 298.256 158.588C299.504 156.335 301.238 154.601 303.456 153.388C305.675 152.175 308.223 151.568 311.1 151.568C313.908 151.568 316.404 152.157 318.588 153.336C320.772 154.515 322.471 156.196 323.684 158.38C324.932 160.564 325.556 163.112 325.556 166.024ZM316.456 163.684C316.456 162.159 315.936 160.945 314.896 160.044C313.856 159.143 312.556 158.692 310.996 158.692C309.506 158.692 308.24 159.125 307.2 159.992C306.195 160.859 305.571 162.089 305.328 163.684H316.456ZM346.419 173.46V181H341.895C338.671 181 336.158 180.22 334.355 178.66C332.553 177.065 331.651 174.483 331.651 170.912V159.368H328.115V151.984H331.651V144.912H340.543V151.984H346.367V159.368H340.543V171.016C340.543 171.883 340.751 172.507 341.167 172.888C341.583 173.269 342.277 173.46 343.247 173.46H346.419ZM390.212 156.248C390.212 158.363 389.727 160.304 388.756 162.072C387.785 163.805 386.295 165.209 384.284 166.284C382.273 167.359 379.777 167.896 376.796 167.896H371.284V181H362.392V144.496H376.796C379.708 144.496 382.169 144.999 384.18 146.004C386.191 147.009 387.699 148.396 388.704 150.164C389.709 151.932 390.212 153.96 390.212 156.248ZM376.12 160.824C377.819 160.824 379.084 160.425 379.916 159.628C380.748 158.831 381.164 157.704 381.164 156.248C381.164 154.792 380.748 153.665 379.916 152.868C379.084 152.071 377.819 151.672 376.12 151.672H371.284V160.824H376.12ZM403.733 142.52V181H394.841V142.52H403.733ZM408.409 166.44C408.409 163.459 408.964 160.841 410.073 158.588C411.217 156.335 412.76 154.601 414.701 153.388C416.642 152.175 418.809 151.568 421.201 151.568C423.246 151.568 425.032 151.984 426.557 152.816C428.117 153.648 429.313 154.74 430.145 156.092V151.984H439.037V181H430.145V176.892C429.278 178.244 428.065 179.336 426.505 180.168C424.98 181 423.194 181.416 421.149 181.416C418.792 181.416 416.642 180.809 414.701 179.596C412.76 178.348 411.217 176.597 410.073 174.344C408.964 172.056 408.409 169.421 408.409 166.44ZM430.145 166.492C430.145 164.273 429.521 162.523 428.273 161.24C427.06 159.957 425.569 159.316 423.801 159.316C422.033 159.316 420.525 159.957 419.277 161.24C418.064 162.488 417.457 164.221 417.457 166.44C417.457 168.659 418.064 170.427 419.277 171.744C420.525 173.027 422.033 173.668 423.801 173.668C425.569 173.668 427.06 173.027 428.273 171.744C429.521 170.461 430.145 168.711 430.145 166.492ZM461.642 173.46V181H457.118C453.894 181 451.381 180.22 449.578 178.66C447.775 177.065 446.874 174.483 446.874 170.912V159.368H443.338V151.984H446.874V144.912H455.766V151.984H461.59V159.368H455.766V171.016C455.766 171.883 455.974 172.507 456.39 172.888C456.806 173.269 457.499 173.46 458.47 173.46H461.642ZM481.155 159.368H476.371V181H467.479V159.368H464.255V151.984H467.479V151.152C467.479 147.581 468.502 144.877 470.547 143.04C472.592 141.168 475.591 140.232 479.543 140.232C480.202 140.232 480.687 140.249 480.999 140.284V147.824C479.3 147.72 478.104 147.963 477.411 148.552C476.718 149.141 476.371 150.199 476.371 151.724V151.984H481.155V159.368ZM498.541 181.416C495.699 181.416 493.133 180.809 490.845 179.596C488.592 178.383 486.807 176.649 485.489 174.396C484.207 172.143 483.565 169.508 483.565 166.492C483.565 163.511 484.224 160.893 485.541 158.64C486.859 156.352 488.661 154.601 490.949 153.388C493.237 152.175 495.803 151.568 498.645 151.568C501.488 151.568 504.053 152.175 506.341 153.388C508.629 154.601 510.432 156.352 511.749 158.64C513.067 160.893 513.725 163.511 513.725 166.492C513.725 169.473 513.049 172.108 511.697 174.396C510.38 176.649 508.56 178.383 506.237 179.596C503.949 180.809 501.384 181.416 498.541 181.416ZM498.541 173.72C500.24 173.72 501.679 173.096 502.857 171.848C504.071 170.6 504.677 168.815 504.677 166.492C504.677 164.169 504.088 162.384 502.909 161.136C501.765 159.888 500.344 159.264 498.645 159.264C496.912 159.264 495.473 159.888 494.329 161.136C493.185 162.349 492.613 164.135 492.613 166.492C492.613 168.815 493.168 170.6 494.277 171.848C495.421 173.096 496.843 173.72 498.541 173.72ZM527.335 156.82C528.375 155.225 529.675 153.977 531.235 153.076C532.795 152.14 534.528 151.672 536.435 151.672V161.084H533.991C531.772 161.084 530.108 161.569 528.999 162.54C527.889 163.476 527.335 165.14 527.335 167.532V181H518.443V151.984H527.335V156.82ZM577.709 151.672C581.314 151.672 584.174 152.764 586.289 154.948C588.438 157.132 589.513 160.165 589.513 164.048V181H580.673V165.244C580.673 163.372 580.17 161.933 579.165 160.928C578.194 159.888 576.842 159.368 575.109 159.368C573.376 159.368 572.006 159.888 571.001 160.928C570.03 161.933 569.545 163.372 569.545 165.244V181H560.705V165.244C560.705 163.372 560.202 161.933 559.197 160.928C558.226 159.888 556.874 159.368 555.141 159.368C553.408 159.368 552.038 159.888 551.033 160.928C550.062 161.933 549.577 163.372 549.577 165.244V181H540.685V151.984H549.577V155.624C550.478 154.411 551.657 153.457 553.113 152.764C554.569 152.036 556.216 151.672 558.053 151.672C560.237 151.672 562.178 152.14 563.877 153.076C565.61 154.012 566.962 155.347 567.933 157.08C568.938 155.485 570.308 154.185 572.041 153.18C573.774 152.175 575.664 151.672 577.709 151.672ZM621.311 159.368H616.527V181H607.635V159.368H604.411V151.984H607.635V151.152C607.635 147.581 608.658 144.877 610.703 143.04C612.749 141.168 615.747 140.232 619.699 140.232C620.358 140.232 620.843 140.249 621.155 140.284V147.824C619.457 147.72 618.261 147.963 617.567 148.552C616.874 149.141 616.527 150.199 616.527 151.724V151.984H621.311V159.368ZM638.698 181.416C635.855 181.416 633.29 180.809 631.002 179.596C628.748 178.383 626.963 176.649 625.646 174.396C624.363 172.143 623.722 169.508 623.722 166.492C623.722 163.511 624.38 160.893 625.698 158.64C627.015 156.352 628.818 154.601 631.106 153.388C633.394 152.175 635.959 151.568 638.802 151.568C641.644 151.568 644.21 152.175 646.498 153.388C648.786 154.601 650.588 156.352 651.906 158.64C653.223 160.893 653.882 163.511 653.882 166.492C653.882 169.473 653.206 172.108 651.854 174.396C650.536 176.649 648.716 178.383 646.394 179.596C644.106 180.809 641.54 181.416 638.698 181.416ZM638.698 173.72C640.396 173.72 641.835 173.096 643.014 171.848C644.227 170.6 644.834 168.815 644.834 166.492C644.834 164.169 644.244 162.384 643.066 161.136C641.922 159.888 640.5 159.264 638.802 159.264C637.068 159.264 635.63 159.888 634.486 161.136C633.342 162.349 632.77 164.135 632.77 166.492C632.77 168.815 633.324 170.6 634.434 171.848C635.578 173.096 636.999 173.72 638.698 173.72ZM667.491 156.82C668.531 155.225 669.831 153.977 671.391 153.076C672.951 152.14 674.684 151.672 676.591 151.672V161.084H674.147C671.928 161.084 670.264 161.569 669.155 162.54C668.046 163.476 667.491 165.14 667.491 167.532V181H658.599V151.984H667.491V156.82ZM718.121 144.496V151.62H708.449V181H699.557V151.62H689.885V144.496H718.121ZM735.791 181.416C732.949 181.416 730.383 180.809 728.095 179.596C725.842 178.383 724.057 176.649 722.739 174.396C721.457 172.143 720.815 169.508 720.815 166.492C720.815 163.511 721.474 160.893 722.791 158.64C724.109 156.352 725.911 154.601 728.199 153.388C730.487 152.175 733.053 151.568 735.895 151.568C738.738 151.568 741.303 152.175 743.591 153.388C745.879 154.601 747.682 156.352 748.999 158.64C750.317 160.893 750.975 163.511 750.975 166.492C750.975 169.473 750.299 172.108 748.947 174.396C747.63 176.649 745.81 178.383 743.487 179.596C741.199 180.809 738.634 181.416 735.791 181.416ZM735.791 173.72C737.49 173.72 738.929 173.096 740.107 171.848C741.321 170.6 741.927 168.815 741.927 166.492C741.927 164.169 741.338 162.384 740.159 161.136C739.015 159.888 737.594 159.264 735.895 159.264C734.162 159.264 732.723 159.888 731.579 161.136C730.435 162.349 729.863 164.135 729.863 166.492C729.863 168.815 730.418 170.6 731.527 171.848C732.671 173.096 734.093 173.72 735.791 173.72ZM768.901 181.416C766.058 181.416 763.493 180.809 761.205 179.596C758.951 178.383 757.166 176.649 755.849 174.396C754.566 172.143 753.925 169.508 753.925 166.492C753.925 163.511 754.583 160.893 755.901 158.64C757.218 156.352 759.021 154.601 761.309 153.388C763.597 152.175 766.162 151.568 769.005 151.568C771.847 151.568 774.413 152.175 776.701 153.388C778.989 154.601 780.791 156.352 782.109 158.64C783.426 160.893 784.085 163.511 784.085 166.492C784.085 169.473 783.409 172.108 782.057 174.396C780.739 176.649 778.919 178.383 776.597 179.596C774.309 180.809 771.743 181.416 768.901 181.416ZM768.901 173.72C770.599 173.72 772.038 173.096 773.217 171.848C774.43 170.6 775.037 168.815 775.037 166.492C775.037 164.169 774.447 162.384 773.269 161.136C772.125 159.888 770.703 159.264 769.005 159.264C767.271 159.264 765.833 159.888 764.689 161.136C763.545 162.349 762.973 164.135 762.973 166.492C762.973 168.815 763.527 170.6 764.637 171.848C765.781 173.096 767.202 173.72 768.901 173.72ZM797.694 142.52V181H788.802V142.52H797.694ZM839.39 156.04C838.731 154.827 837.778 153.908 836.53 153.284C835.316 152.625 833.878 152.296 832.214 152.296C829.336 152.296 827.031 153.249 825.298 155.156C823.564 157.028 822.698 159.541 822.698 162.696C822.698 166.059 823.599 168.693 825.402 170.6C827.239 172.472 829.752 173.408 832.942 173.408C835.126 173.408 836.963 172.853 838.454 171.744C839.979 170.635 841.088 169.04 841.782 166.96H830.498V160.408H849.842V168.676C849.183 170.895 848.056 172.957 846.462 174.864C844.902 176.771 842.908 178.313 840.482 179.492C838.055 180.671 835.316 181.26 832.266 181.26C828.66 181.26 825.436 180.48 822.594 178.92C819.786 177.325 817.584 175.124 815.99 172.316C814.43 169.508 813.65 166.301 813.65 162.696C813.65 159.091 814.43 155.884 815.99 153.076C817.584 150.233 819.786 148.032 822.594 146.472C825.402 144.877 828.608 144.08 832.214 144.08C836.582 144.08 840.256 145.137 843.238 147.252C846.254 149.367 848.247 152.296 849.218 156.04H839.39ZM882.119 166.024C882.119 166.856 882.067 167.723 881.963 168.624H861.839C861.978 170.427 862.55 171.813 863.555 172.784C864.595 173.72 865.86 174.188 867.351 174.188C869.57 174.188 871.112 173.252 871.979 171.38H881.443C880.958 173.287 880.074 175.003 878.791 176.528C877.543 178.053 875.966 179.249 874.059 180.116C872.152 180.983 870.02 181.416 867.663 181.416C864.82 181.416 862.29 180.809 860.071 179.596C857.852 178.383 856.119 176.649 854.871 174.396C853.623 172.143 852.999 169.508 852.999 166.492C852.999 163.476 853.606 160.841 854.819 158.588C856.067 156.335 857.8 154.601 860.019 153.388C862.238 152.175 864.786 151.568 867.663 151.568C870.471 151.568 872.967 152.157 875.151 153.336C877.335 154.515 879.034 156.196 880.247 158.38C881.495 160.564 882.119 163.112 882.119 166.024ZM873.019 163.684C873.019 162.159 872.499 160.945 871.459 160.044C870.419 159.143 869.119 158.692 867.559 158.692C866.068 158.692 864.803 159.125 863.763 159.992C862.758 160.859 862.134 162.089 861.891 163.684H873.019ZM904.49 151.672C907.887 151.672 910.591 152.781 912.602 155C914.647 157.184 915.67 160.2 915.67 164.048V181H906.83V165.244C906.83 163.303 906.327 161.795 905.322 160.72C904.317 159.645 902.965 159.108 901.266 159.108C899.567 159.108 898.215 159.645 897.21 160.72C896.205 161.795 895.702 163.303 895.702 165.244V181H886.81V151.984H895.702V155.832C896.603 154.549 897.817 153.544 899.342 152.816C900.867 152.053 902.583 151.672 904.49 151.672ZM949.201 166.024C949.201 166.856 949.149 167.723 949.045 168.624H928.921C929.06 170.427 929.632 171.813 930.637 172.784C931.677 173.72 932.942 174.188 934.433 174.188C936.652 174.188 938.194 173.252 939.061 171.38H948.525C948.04 173.287 947.156 175.003 945.873 176.528C944.625 178.053 943.048 179.249 941.141 180.116C939.234 180.983 937.102 181.416 934.745 181.416C931.902 181.416 929.372 180.809 927.153 179.596C924.934 178.383 923.201 176.649 921.953 174.396C920.705 172.143 920.081 169.508 920.081 166.492C920.081 163.476 920.688 160.841 921.901 158.588C923.149 156.335 924.882 154.601 927.101 153.388C929.32 152.175 931.868 151.568 934.745 151.568C937.553 151.568 940.049 152.157 942.233 153.336C944.417 154.515 946.116 156.196 947.329 158.38C948.577 160.564 949.201 163.112 949.201 166.024ZM940.101 163.684C940.101 162.159 939.581 160.945 938.541 160.044C937.501 159.143 936.201 158.692 934.641 158.692C933.15 158.692 931.885 159.125 930.845 159.992C929.84 160.859 929.216 162.089 928.973 163.684H940.101ZM962.784 156.82C963.824 155.225 965.124 153.977 966.684 153.076C968.244 152.14 969.977 151.672 971.884 151.672V161.084H969.44C967.221 161.084 965.557 161.569 964.448 162.54C963.339 163.476 962.784 165.14 962.784 167.532V181H953.892V151.984H962.784V156.82ZM974.366 166.44C974.366 163.459 974.921 160.841 976.03 158.588C977.174 156.335 978.717 154.601 980.658 153.388C982.599 152.175 984.766 151.568 987.158 151.568C989.203 151.568 990.989 151.984 992.514 152.816C994.074 153.648 995.27 154.74 996.102 156.092V151.984H1004.99V181H996.102V176.892C995.235 178.244 994.022 179.336 992.462 180.168C990.937 181 989.151 181.416 987.106 181.416C984.749 181.416 982.599 180.809 980.658 179.596C978.717 178.348 977.174 176.597 976.03 174.344C974.921 172.056 974.366 169.421 974.366 166.44ZM996.102 166.492C996.102 164.273 995.478 162.523 994.23 161.24C993.017 159.957 991.526 159.316 989.758 159.316C987.99 159.316 986.482 159.957 985.234 161.24C984.021 162.488 983.414 164.221 983.414 166.44C983.414 168.659 984.021 170.427 985.234 171.744C986.482 173.027 987.99 173.668 989.758 173.668C991.526 173.668 993.017 173.027 994.23 171.744C995.478 170.461 996.102 168.711 996.102 166.492ZM1027.6 173.46V181H1023.08C1019.85 181 1017.34 180.22 1015.54 178.66C1013.73 177.065 1012.83 174.483 1012.83 170.912V159.368H1009.3V151.984H1012.83V144.912H1021.72V151.984H1027.55V159.368H1021.72V171.016C1021.72 171.883 1021.93 172.507 1022.35 172.888C1022.76 173.269 1023.46 173.46 1024.43 173.46H1027.6ZM1037.02 148.968C1035.46 148.968 1034.18 148.517 1033.18 147.616C1032.21 146.68 1031.72 145.536 1031.72 144.184C1031.72 142.797 1032.21 141.653 1033.18 140.752C1034.18 139.816 1035.46 139.348 1037.02 139.348C1038.55 139.348 1039.8 139.816 1040.77 140.752C1041.77 141.653 1042.28 142.797 1042.28 144.184C1042.28 145.536 1041.77 146.68 1040.77 147.616C1039.8 148.517 1038.55 148.968 1037.02 148.968ZM1041.44 151.984V181H1032.55V151.984H1041.44ZM1061.1 181.416C1058.25 181.416 1055.69 180.809 1053.4 179.596C1051.15 178.383 1049.36 176.649 1048.04 174.396C1046.76 172.143 1046.12 169.508 1046.12 166.492C1046.12 163.511 1046.78 160.893 1048.1 158.64C1049.41 156.352 1051.22 154.601 1053.5 153.388C1055.79 152.175 1058.36 151.568 1061.2 151.568C1064.04 151.568 1066.61 152.175 1068.9 153.388C1071.18 154.601 1072.99 156.352 1074.3 158.64C1075.62 160.893 1076.28 163.511 1076.28 166.492C1076.28 169.473 1075.6 172.108 1074.25 174.396C1072.93 176.649 1071.11 178.383 1068.79 179.596C1066.5 180.809 1063.94 181.416 1061.1 181.416ZM1061.1 173.72C1062.79 173.72 1064.23 173.096 1065.41 171.848C1066.63 170.6 1067.23 168.815 1067.23 166.492C1067.23 164.169 1066.64 162.384 1065.46 161.136C1064.32 159.888 1062.9 159.264 1061.2 159.264C1059.47 159.264 1058.03 159.888 1056.88 161.136C1055.74 162.349 1055.17 164.135 1055.17 166.492C1055.17 168.815 1055.72 170.6 1056.83 171.848C1057.98 173.096 1059.4 173.72 1061.1 173.72ZM1098.68 151.672C1102.07 151.672 1104.78 152.781 1106.79 155C1108.83 157.184 1109.86 160.2 1109.86 164.048V181H1101.02V165.244C1101.02 163.303 1100.51 161.795 1099.51 160.72C1098.5 159.645 1097.15 159.108 1095.45 159.108C1093.75 159.108 1092.4 159.645 1091.4 160.72C1090.39 161.795 1089.89 163.303 1089.89 165.244V181H1081V151.984H1089.89V155.832C1090.79 154.549 1092 153.544 1093.53 152.816C1095.05 152.053 1096.77 151.672 1098.68 151.672Z" fill="white"/>
<path d="M62.192 210.696V213.064H56.112V233H53.2V213.064H47.088V210.696H62.192ZM73.4245 233.288C71.7818 233.288 70.2885 232.915 68.9445 232.168C67.6218 231.421 66.5765 230.365 65.8085 229C65.0618 227.613 64.6885 226.013 64.6885 224.2C64.6885 222.408 65.0725 220.829 65.8405 219.464C66.6298 218.077 67.6965 217.021 69.0405 216.296C70.3845 215.549 71.8885 215.176 73.5525 215.176C75.2165 215.176 76.7205 215.549 78.0645 216.296C79.4085 217.021 80.4645 218.067 81.2325 219.432C82.0218 220.797 82.4165 222.387 82.4165 224.2C82.4165 226.013 82.0112 227.613 81.2005 229C80.4112 230.365 79.3338 231.421 77.9685 232.168C76.6032 232.915 75.0885 233.288 73.4245 233.288ZM73.4245 230.728C74.4698 230.728 75.4512 230.483 76.3685 229.992C77.2858 229.501 78.0218 228.765 78.5765 227.784C79.1525 226.803 79.4405 225.608 79.4405 224.2C79.4405 222.792 79.1632 221.597 78.6085 220.616C78.0538 219.635 77.3285 218.909 76.4325 218.44C75.5365 217.949 74.5658 217.704 73.5205 217.704C72.4538 217.704 71.4725 217.949 70.5765 218.44C69.7018 218.909 68.9978 219.635 68.4645 220.616C67.9312 221.597 67.6645 222.792 67.6645 224.2C67.6645 225.629 67.9205 226.835 68.4325 227.816C68.9658 228.797 69.6698 229.533 70.5445 230.024C71.4192 230.493 72.3792 230.728 73.4245 230.728ZM89.1573 218.312C89.6693 217.309 90.3946 216.531 91.3333 215.976C92.2933 215.421 93.4559 215.144 94.8213 215.144V218.152H94.0533C90.7893 218.152 89.1573 219.923 89.1573 223.464V233H86.2453V215.464H89.1573V218.312ZM113.735 215.464V233H110.823V230.408C110.268 231.304 109.489 232.008 108.487 232.52C107.505 233.011 106.417 233.256 105.223 233.256C103.857 233.256 102.631 232.979 101.543 232.424C100.455 231.848 99.5908 230.995 98.9508 229.864C98.3321 228.733 98.0228 227.357 98.0228 225.736V215.464H100.903V225.352C100.903 227.08 101.34 228.413 102.215 229.352C103.089 230.269 104.284 230.728 105.799 230.728C107.356 230.728 108.583 230.248 109.479 229.288C110.375 228.328 110.823 226.931 110.823 225.096V215.464H113.735ZM124.86 233.288C123.516 233.288 122.31 233.064 121.244 232.616C120.177 232.147 119.334 231.507 118.716 230.696C118.097 229.864 117.756 228.915 117.692 227.848H120.7C120.785 228.723 121.19 229.437 121.916 229.992C122.662 230.547 123.633 230.824 124.828 230.824C125.937 230.824 126.812 230.579 127.452 230.088C128.092 229.597 128.412 228.979 128.412 228.232C128.412 227.464 128.07 226.899 127.388 226.536C126.705 226.152 125.649 225.779 124.22 225.416C122.918 225.075 121.852 224.733 121.02 224.392C120.209 224.029 119.505 223.507 118.908 222.824C118.332 222.12 118.044 221.203 118.044 220.072C118.044 219.176 118.31 218.355 118.844 217.608C119.377 216.861 120.134 216.275 121.116 215.848C122.097 215.4 123.217 215.176 124.476 215.176C126.417 215.176 127.985 215.667 129.18 216.648C130.374 217.629 131.014 218.973 131.1 220.68H128.188C128.124 219.763 127.75 219.027 127.068 218.472C126.406 217.917 125.51 217.64 124.38 217.64C123.334 217.64 122.502 217.864 121.884 218.312C121.265 218.76 120.956 219.347 120.956 220.072C120.956 220.648 121.137 221.128 121.5 221.512C121.884 221.875 122.353 222.173 122.908 222.408C123.484 222.621 124.273 222.867 125.276 223.144C126.534 223.485 127.558 223.827 128.348 224.168C129.137 224.488 129.809 224.979 130.364 225.64C130.94 226.301 131.238 227.165 131.26 228.232C131.26 229.192 130.993 230.056 130.46 230.824C129.926 231.592 129.169 232.2 128.188 232.648C127.228 233.075 126.118 233.288 124.86 233.288ZM157.086 228.04H147.358L145.566 233H142.493L150.558 210.824H153.918L161.95 233H158.878L157.086 228.04ZM156.254 225.672L152.222 214.408L148.19 225.672H156.254ZM181.016 215.464V233H178.104V230.408C177.549 231.304 176.771 232.008 175.768 232.52C174.787 233.011 173.699 233.256 172.504 233.256C171.139 233.256 169.912 232.979 168.824 232.424C167.736 231.848 166.872 230.995 166.232 229.864C165.613 228.733 165.304 227.357 165.304 225.736V215.464H168.184V225.352C168.184 227.08 168.621 228.413 169.496 229.352C170.371 230.269 171.565 230.728 173.08 230.728C174.637 230.728 175.864 230.248 176.76 229.288C177.656 228.328 178.104 226.931 178.104 225.096V215.464H181.016ZM189.485 217.864V228.2C189.485 229.053 189.666 229.661 190.029 230.024C190.391 230.365 191.021 230.536 191.917 230.536H194.061V233H191.437C189.815 233 188.599 232.627 187.789 231.88C186.978 231.133 186.573 229.907 186.573 228.2V217.864H184.301V215.464H186.573V211.048H189.485V215.464H194.061V217.864H189.485ZM205.237 233.288C203.594 233.288 202.101 232.915 200.757 232.168C199.434 231.421 198.389 230.365 197.621 229C196.874 227.613 196.501 226.013 196.501 224.2C196.501 222.408 196.885 220.829 197.653 219.464C198.442 218.077 199.509 217.021 200.853 216.296C202.197 215.549 203.701 215.176 205.365 215.176C207.029 215.176 208.533 215.549 209.877 216.296C211.221 217.021 212.277 218.067 213.045 219.432C213.834 220.797 214.229 222.387 214.229 224.2C214.229 226.013 213.824 227.613 213.013 229C212.224 230.365 211.146 231.421 209.781 232.168C208.416 232.915 206.901 233.288 205.237 233.288ZM205.237 230.728C206.282 230.728 207.264 230.483 208.181 229.992C209.098 229.501 209.834 228.765 210.389 227.784C210.965 226.803 211.253 225.608 211.253 224.2C211.253 222.792 210.976 221.597 210.421 220.616C209.866 219.635 209.141 218.909 208.245 218.44C207.349 217.949 206.378 217.704 205.333 217.704C204.266 217.704 203.285 217.949 202.389 218.44C201.514 218.909 200.81 219.635 200.277 220.616C199.744 221.597 199.477 222.792 199.477 224.2C199.477 225.629 199.733 226.835 200.245 227.816C200.778 228.797 201.482 229.533 202.357 230.024C203.232 230.493 204.192 230.728 205.237 230.728ZM239.146 215.144C240.511 215.144 241.727 215.432 242.794 216.008C243.86 216.563 244.703 217.405 245.322 218.536C245.94 219.667 246.25 221.043 246.25 222.664V233H243.37V223.08C243.37 221.331 242.932 219.997 242.058 219.08C241.204 218.141 240.042 217.672 238.57 217.672C237.055 217.672 235.85 218.163 234.954 219.144C234.058 220.104 233.61 221.501 233.61 223.336V233H230.73V223.08C230.73 221.331 230.292 219.997 229.418 219.08C228.564 218.141 227.402 217.672 225.93 217.672C224.415 217.672 223.21 218.163 222.314 219.144C221.418 220.104 220.97 221.501 220.97 223.336V233H218.058V215.464H220.97V217.992C221.546 217.075 222.314 216.371 223.274 215.88C224.255 215.389 225.332 215.144 226.506 215.144C227.978 215.144 229.279 215.475 230.41 216.136C231.54 216.797 232.383 217.768 232.938 219.048C233.428 217.811 234.239 216.851 235.37 216.168C236.5 215.485 237.759 215.144 239.146 215.144ZM249.939 224.168C249.939 222.376 250.301 220.808 251.027 219.464C251.752 218.099 252.744 217.043 254.003 216.296C255.283 215.549 256.701 215.176 258.259 215.176C259.795 215.176 261.128 215.507 262.259 216.168C263.389 216.829 264.232 217.661 264.787 218.664V215.464H267.731V233H264.787V229.736C264.211 230.76 263.347 231.613 262.195 232.296C261.064 232.957 259.741 233.288 258.227 233.288C256.669 233.288 255.261 232.904 254.003 232.136C252.744 231.368 251.752 230.291 251.027 228.904C250.301 227.517 249.939 225.939 249.939 224.168ZM264.787 224.2C264.787 222.877 264.52 221.725 263.987 220.744C263.453 219.763 262.728 219.016 261.811 218.504C260.915 217.971 259.923 217.704 258.835 217.704C257.747 217.704 256.755 217.96 255.859 218.472C254.963 218.984 254.248 219.731 253.715 220.712C253.181 221.693 252.915 222.845 252.915 224.168C252.915 225.512 253.181 226.685 253.715 227.688C254.248 228.669 254.963 229.427 255.859 229.96C256.755 230.472 257.747 230.728 258.835 230.728C259.923 230.728 260.915 230.472 261.811 229.96C262.728 229.427 263.453 228.669 263.987 227.688C264.52 226.685 264.787 225.523 264.787 224.2ZM276.204 217.864V228.2C276.204 229.053 276.385 229.661 276.748 230.024C277.11 230.365 277.74 230.536 278.635 230.536H280.78V233H278.156C276.534 233 275.318 232.627 274.508 231.88C273.697 231.133 273.292 229.907 273.292 228.2V217.864H271.02V215.464H273.292V211.048H276.204V215.464H280.78V217.864H276.204ZM285.812 212.616C285.257 212.616 284.788 212.424 284.404 212.04C284.02 211.656 283.828 211.187 283.828 210.632C283.828 210.077 284.02 209.608 284.404 209.224C284.788 208.84 285.257 208.648 285.812 208.648C286.345 208.648 286.793 208.84 287.156 209.224C287.54 209.608 287.732 210.077 287.732 210.632C287.732 211.187 287.54 211.656 287.156 212.04C286.793 212.424 286.345 212.616 285.812 212.616ZM287.22 215.464V233H284.308V215.464H287.22ZM299.831 233.288C298.188 233.288 296.695 232.915 295.351 232.168C294.028 231.421 292.983 230.365 292.215 229C291.468 227.613 291.095 226.013 291.095 224.2C291.095 222.408 291.479 220.829 292.247 219.464C293.036 218.077 294.103 217.021 295.447 216.296C296.791 215.549 298.295 215.176 299.959 215.176C301.623 215.176 303.127 215.549 304.471 216.296C305.815 217.021 306.871 218.067 307.639 219.432C308.428 220.797 308.823 222.387 308.823 224.2C308.823 226.013 308.417 227.613 307.607 229C306.817 230.365 305.74 231.421 304.375 232.168C303.009 232.915 301.495 233.288 299.831 233.288ZM299.831 230.728C300.876 230.728 301.857 230.483 302.775 229.992C303.692 229.501 304.428 228.765 304.983 227.784C305.559 226.803 305.847 225.608 305.847 224.2C305.847 222.792 305.569 221.597 305.015 220.616C304.46 219.635 303.735 218.909 302.839 218.44C301.943 217.949 300.972 217.704 299.927 217.704C298.86 217.704 297.879 217.949 296.983 218.44C296.108 218.909 295.404 219.635 294.871 220.616C294.337 221.597 294.071 222.792 294.071 224.2C294.071 225.629 294.327 226.835 294.839 227.816C295.372 228.797 296.076 229.533 296.951 230.024C297.825 230.493 298.785 230.728 299.831 230.728ZM321.196 215.144C323.329 215.144 325.057 215.795 326.38 217.096C327.702 218.376 328.364 220.232 328.364 222.664V233H325.484V223.08C325.484 221.331 325.046 219.997 324.172 219.08C323.297 218.141 322.102 217.672 320.588 217.672C319.052 217.672 317.825 218.152 316.908 219.112C316.012 220.072 315.564 221.469 315.564 223.304V233H312.652V215.464H315.564V217.96C316.14 217.064 316.918 216.371 317.9 215.88C318.902 215.389 320.001 215.144 321.196 215.144ZM348.724 233.224C347.252 233.224 345.929 232.968 344.756 232.456C343.604 231.923 342.697 231.197 342.036 230.28C341.374 229.341 341.033 228.264 341.012 227.048H344.116C344.222 228.093 344.649 228.979 345.396 229.704C346.164 230.408 347.273 230.76 348.724 230.76C350.11 230.76 351.198 230.419 351.988 229.736C352.798 229.032 353.204 228.136 353.204 227.048C353.204 226.195 352.969 225.501 352.5 224.968C352.03 224.435 351.444 224.029 350.74 223.752C350.036 223.475 349.086 223.176 347.892 222.856C346.42 222.472 345.236 222.088 344.34 221.704C343.465 221.32 342.708 220.723 342.068 219.912C341.449 219.08 341.14 217.971 341.14 216.584C341.14 215.368 341.449 214.291 342.068 213.352C342.686 212.413 343.55 211.688 344.66 211.176C345.79 210.664 347.081 210.408 348.532 210.408C350.622 210.408 352.329 210.931 353.652 211.976C354.996 213.021 355.753 214.408 355.924 216.136H352.724C352.617 215.283 352.169 214.536 351.38 213.896C350.59 213.235 349.545 212.904 348.244 212.904C347.028 212.904 346.036 213.224 345.268 213.864C344.5 214.483 344.116 215.357 344.116 216.488C344.116 217.299 344.34 217.96 344.788 218.472C345.257 218.984 345.822 219.379 346.484 219.656C347.166 219.912 348.116 220.211 349.332 220.552C350.804 220.957 351.988 221.363 352.884 221.768C353.78 222.152 354.548 222.76 355.188 223.592C355.828 224.403 356.148 225.512 356.148 226.92C356.148 228.008 355.86 229.032 355.284 229.992C354.708 230.952 353.854 231.731 352.724 232.328C351.593 232.925 350.26 233.224 348.724 233.224ZM375.985 215.464V233H373.073V230.408C372.518 231.304 371.739 232.008 370.737 232.52C369.755 233.011 368.667 233.256 367.473 233.256C366.107 233.256 364.881 232.979 363.793 232.424C362.705 231.848 361.841 230.995 361.201 229.864C360.582 228.733 360.273 227.357 360.273 225.736V215.464H363.153V225.352C363.153 227.08 363.59 228.413 364.465 229.352C365.339 230.269 366.534 230.728 368.049 230.728C369.606 230.728 370.833 230.248 371.729 229.288C372.625 228.328 373.073 226.931 373.073 225.096V215.464H375.985ZM382.406 212.616C381.851 212.616 381.382 212.424 380.998 212.04C380.614 211.656 380.422 211.187 380.422 210.632C380.422 210.077 380.614 209.608 380.998 209.224C381.382 208.84 381.851 208.648 382.406 208.648C382.939 208.648 383.387 208.84 383.75 209.224C384.134 209.608 384.326 210.077 384.326 210.632C384.326 211.187 384.134 211.656 383.75 212.04C383.387 212.424 382.939 212.616 382.406 212.616ZM383.814 215.464V233H380.902V215.464H383.814ZM392.329 217.864V228.2C392.329 229.053 392.51 229.661 392.873 230.024C393.235 230.365 393.865 230.536 394.76 230.536H396.905V233H394.281C392.659 233 391.443 232.627 390.633 231.88C389.822 231.133 389.417 229.907 389.417 228.2V217.864H387.145V215.464H389.417V211.048H392.329V215.464H396.905V217.864H392.329ZM416.433 223.56C416.433 224.115 416.401 224.701 416.337 225.32H402.321C402.427 227.048 403.014 228.403 404.081 229.384C405.169 230.344 406.481 230.824 408.017 230.824C409.275 230.824 410.321 230.536 411.153 229.96C412.006 229.363 412.603 228.573 412.945 227.592H416.081C415.611 229.277 414.673 230.653 413.265 231.72C411.857 232.765 410.107 233.288 408.017 233.288C406.353 233.288 404.859 232.915 403.537 232.168C402.235 231.421 401.211 230.365 400.465 229C399.718 227.613 399.345 226.013 399.345 224.2C399.345 222.387 399.707 220.797 400.433 219.432C401.158 218.067 402.171 217.021 403.473 216.296C404.795 215.549 406.31 215.176 408.017 215.176C409.681 215.176 411.153 215.539 412.433 216.264C413.713 216.989 414.694 217.992 415.377 219.272C416.081 220.531 416.433 221.96 416.433 223.56ZM413.425 222.952C413.425 221.843 413.179 220.893 412.689 220.104C412.198 219.293 411.526 218.685 410.673 218.28C409.841 217.853 408.913 217.64 407.889 217.64C406.417 217.64 405.158 218.109 404.113 219.048C403.089 219.987 402.502 221.288 402.353 222.952H413.425Z" fill="white"/>
</svg>
